<svg xmlns="http://www.w3.org/2000/svg" viewBox="0 0 400 300" width="406" height="306" class="illustration styles_illustrationTablet__1DWOa"><g id="_568_analytics_team_flatline" data-name="#568_analytics_team_flatline"><path d="M351.12,230.89H64a.5.5,0,0,1-.5-.5.5.5,0,0,1,.5-.5H351.12a.5.5,0,0,1,.5.5A.51.51,0,0,1,351.12,230.89Z" fill="#231f20"></path><rect x="110.04" y="45.28" width="193.95" height="145.51" fill="#fff"></rect><path d="M304,191.31H110a.52.52,0,0,1-.52-.52V45.28a.51.51,0,0,1,.52-.51H304a.51.51,0,0,1,.51.51V190.79A.51.51,0,0,1,304,191.31Zm-193.43-1H303.47V45.8H110.56Z" fill="#231f20"></path><path d="M159.08,177.78H144.16a.48.48,0,0,1-.48-.48V106.18a.49.49,0,0,1,.48-.48h14.92a.49.49,0,0,1,.48.48V177.3A.48.48,0,0,1,159.08,177.78Zm-14.44-.95h14V106.66h-14Z" fill="#d1d3d4"></path><path d="M186.6,177.78H171.68a.48.48,0,0,1-.48-.48V135.59a.48.48,0,0,1,.48-.47H186.6a.48.48,0,0,1,.48.47V177.3A.48.48,0,0,1,186.6,177.78Zm-14.44-.95h14V136.07h-14Z" fill="#d1d3d4"></path><path d="M214.12,177.78H199.2a.47.47,0,0,1-.47-.48V116.43a.47.47,0,0,1,.47-.47h14.92a.47.47,0,0,1,.48.47V177.3A.47.47,0,0,1,214.12,177.78Zm-14.44-.95h14V116.91h-14Z" fill="#d1d3d4"></path><path d="M241.64,177.78H226.72a.47.47,0,0,1-.47-.48V151.19a.48.48,0,0,1,.47-.48h14.92a.48.48,0,0,1,.48.48V177.3A.47.47,0,0,1,241.64,177.78Zm-14.44-.95h14V151.67h-14Z" fill="#d1d3d4"></path><path d="M269.17,177.78H254.25a.47.47,0,0,1-.48-.48V116.43a.47.47,0,0,1,.48-.47h14.92a.47.47,0,0,1,.47.47V177.3A.47.47,0,0,1,269.17,177.78Zm-14.45-.95h14V116.91h-14Z" fill="#d1d3d4"></path><path d="M268.81,81.81H243.57a.48.48,0,1,1,0-1h25.24a.48.48,0,1,1,0,1Z" fill="#d1d3d4"></path><path d="M268.81,87.38H243.57a.48.48,0,1,1,0-.95h25.24a.48.48,0,1,1,0,.95Z" fill="#d1d3d4"></path><path d="M260,93H243.57a.48.48,0,1,1,0-1H260a.48.48,0,1,1,0,1Z" fill="#d1d3d4"></path><path d="M170.66,69.32H145.42a.48.48,0,1,1,0-.95h25.24a.48.48,0,1,1,0,.95Z" fill="#d1d3d4"></path><path d="M161.88,74.89H145.42a.48.48,0,1,1,0-1h16.46a.48.48,0,1,1,0,1Z" fill="#d1d3d4"></path><path d="M236,125.94c-7.8,0-14.67-8.8-20.21-15.9-3.7-4.74-7.2-9.21-9.68-9.21h-.06c-2.7.08-6.31,2.17-10.15,4.39-5.1,3-10.89,6.29-16.28,6-10.1-.55-29.24-23.06-30-24a.47.47,0,0,1,0-.67.49.49,0,0,1,.68.06c.19.23,19.68,23.15,29.37,23.67,5.11.3,10.77-3,15.76-5.88,3.93-2.27,7.65-4.43,10.59-4.52h.1c2.94,0,6.25,4.24,10.42,9.58C222,116.39,228.71,125,236,125h.44c6.57-.32,9.65-5.94,12.92-11.89,3-5.55,6.19-11.28,12.41-12.47a.48.48,0,0,1,.56.38.48.48,0,0,1-.38.56c-5.78,1.1-8.82,6.64-11.75,12-3.25,5.92-6.61,12-13.71,12.38Z" fill="#d1d3d4"></path><path d="M281.93,177.78H132.1a.48.48,0,1,1,0-.95H281.93a.48.48,0,0,1,0,.95Z" fill="#d1d3d4"></path><path d="M150.34,89.79a3,3,0,1,1,3-3A3,3,0,0,1,150.34,89.79Zm0-5a2,2,0,1,0,2,2A2,2,0,0,0,150.34,84.8Z" fill="#d1d3d4"></path><path d="M261.9,104.05a3,3,0,1,1,3-3A3,3,0,0,1,261.9,104.05Zm0-5a2,2,0,1,0,2,2A2,2,0,0,0,261.9,99.07Z" fill="#d1d3d4"></path><rect x="110.04" y="45.28" width="193.95" height="11.75" fill="#fff"></rect><path d="M304,57.55H110a.51.51,0,0,1-.52-.51V45.28a.51.51,0,0,1,.52-.51H304a.51.51,0,0,1,.51.51V57A.51.51,0,0,1,304,57.55Zm-193.43-1H303.47V45.8H110.56Z" fill="#231f20"></path><rect x="195.19" y="36.29" width="82.67" height="58.02" fill="#fff"></rect><path d="M277.86,94.82H195.19a.52.52,0,0,1-.52-.51v-58a.52.52,0,0,1,.52-.52h82.67a.51.51,0,0,1,.51.52v58A.51.51,0,0,1,277.86,94.82Zm-82.15-1h81.63v-57H195.71Z" fill="#231f20"></path><path d="M219,51.55l15.23,15.22a.78.78,0,0,0,.61.26q11.46,0,22.94,0h.38a22.5,22.5,0,1,1-39.36-15.67Z" fill="#2f55d4"></path><path d="M236.44,43.71V65.43l.22,0,21,0c.46,0,.46,0,.43-.48A22.7,22.7,0,0,0,244.7,45.65a23.16,23.16,0,0,0-7.27-1.84Z" fill="#d1d3d4"></path><path d="M234.84,65.14V43.73a24.42,24.42,0,0,0-7.38,1.55,23.25,23.25,0,0,0-7.59,4.9Z" fill="#d1d3d4"></path><path d="M269.32,78h-9.61a.5.5,0,0,1-.5-.5.5.5,0,0,1,.5-.5h9.61a.5.5,0,0,1,.5.5A.5.5,0,0,1,269.32,78Z" fill="#d1d3d4"></path><path d="M269.32,82.3h-9.61a.5.5,0,0,1-.5-.5.5.5,0,0,1,.5-.5h9.61a.5.5,0,0,1,.5.5A.5.5,0,0,1,269.32,82.3Z" fill="#d1d3d4"></path><path d="M266.45,86.59h-6.74a.5.5,0,0,1-.5-.5.5.5,0,0,1,.5-.5h6.74a.5.5,0,0,1,.5.5A.5.5,0,0,1,266.45,86.59Z" fill="#d1d3d4"></path><path d="M218.16,42.33H207.84a.5.5,0,0,1-.5-.5.5.5,0,0,1,.5-.5h10.32a.5.5,0,0,1,.5.5A.5.5,0,0,1,218.16,42.33Z" fill="#d1d3d4"></path><path d="M218.16,45.1H207.84a.5.5,0,0,1-.5-.5.5.5,0,0,1,.5-.5h10.32a.5.5,0,0,1,.5.5A.5.5,0,0,1,218.16,45.1Z" fill="#d1d3d4"></path><path d="M215.08,47.86h-7.24a.5.5,0,0,1,0-1h7.24a.5.5,0,0,1,0,1Z" fill="#d1d3d4"></path><path d="M113.84,237.92s.56,12.18,1.12,12.48,8.43,1,9.83-1.1l1-8.7Z" fill="#fff"></path><path d="M119,251.29a15.17,15.17,0,0,1-4.23-.44c-.31-.16-.82-.43-1.39-12.9a.51.51,0,0,1,.18-.42.48.48,0,0,1,.44-.11l11.93,2.68a.51.51,0,0,1,.4.56l-1,8.69a.45.45,0,0,1-.08.23C124.33,250.91,121.47,251.29,119,251.29ZM115.32,250c1.16.28,7.68.69,9-.88l.92-8.09-10.82-2.44A109.59,109.59,0,0,0,115.32,250Zm0,.11Z" fill="#231f20"></path><path d="M75.61,245.47s-1.31,6.64-.84,7.11,6.82,1,7.85.74,3.27-2.43,3.27-2.43l2.06-8.5Z" fill="#fff"></path><path d="M81.56,253.9c-2.23,0-6.56-.36-7.16-1-.19-.2-.66-.66.7-7.57a.53.53,0,0,1,.39-.4l12.33-3.08a.54.54,0,0,1,.49.13.52.52,0,0,1,.14.49L86.39,251a.52.52,0,0,1-.14.25c-.24.23-2.37,2.25-3.49,2.55A6.08,6.08,0,0,1,81.56,253.9Zm-6.37-1.66a32.09,32.09,0,0,0,7.29.59,12,12,0,0,0,3-2.21l1.82-7.52-11.2,2.79A38.91,38.91,0,0,0,75.19,252.24Zm0,.08Z" fill="#231f20"></path><path d="M79.37,152.84s-2.24,57.55-5.77,92.45c0,0,6,4,17.24.68,0,0,11.22-43.91,9.67-80.7,0,0,10.92,48.47,10.54,78.94A33.82,33.82,0,0,0,127.17,241s-2.34-70.66-6.54-89.73-4.36-16.44-4.36-16.44L82,145.59Z" fill="#231f20"></path><path d="M82.29,247.82c-5.73,0-8.79-2-9-2.12a.5.5,0,0,1-.22-.46c3.49-34.49,5.75-91.84,5.77-92.42a.4.4,0,0,1,0-.15l2.66-7.25a.52.52,0,0,1,.32-.31l34-10.71a.53.53,0,0,1,.38-.21c.58,0,1.07-.09,4.83,17,4.16,18.89,6.53,89.1,6.55,89.81a.48.48,0,0,1-.27.46A33.86,33.86,0,0,1,111,244.71a.5.5,0,0,1-.46-.51c.3-24.18-6.63-60.16-9.4-73.56.33,35.25-9.71,75-9.82,75.45a.5.5,0,0,1-.34.36A30.27,30.27,0,0,1,82.29,247.82ZM74.13,245c1.23.67,6.88,3.29,16.3.55.94-3.78,11-45.49,9.58-80.28a.5.5,0,0,1,.44-.52.5.5,0,0,1,.55.39c.11.48,10.81,48.37,10.56,78.58a33.69,33.69,0,0,0,15.1-3.07c-.18-5.2-2.52-71.16-6.52-89.31-2.6-11.77-3.6-15.08-4-16L82.42,146l-2.56,6.95C79.77,155.39,77.54,211.06,74.13,245Z" fill="#231f20"></path><path d="M90,72.34c-.48-2.13-1.66-3.86-2.15-6a13.68,13.68,0,0,1,.29-7.1,5.51,5.51,0,0,1,1.44-2.5c.67-.61,1.36-.3,2.12-.53s1-.55,1.62-1a9.81,9.81,0,0,1,4.88-1.94,14.4,14.4,0,0,1,6.78.55,8.43,8.43,0,0,1,5,4.48c1,2.29.45,4.73.42,7.12a9.39,9.39,0,0,1-2.61,6.28,10.68,10.68,0,0,1-5.94,3.07,18.75,18.75,0,0,1-6.76-.18,9.41,9.41,0,0,1-3.37-1.14C90.68,72.77,90.28,73.5,90,72.34Z" fill="#fff"></path><path d="M99.12,75.48A22.64,22.64,0,0,1,95,75.06a10.32,10.32,0,0,1-3.55-1.21,1.38,1.38,0,0,0-.74-.24c-.6-.07-1-.27-1.16-1.16a15.55,15.55,0,0,0-1-2.91,17.24,17.24,0,0,1-1.1-3.08,14,14,0,0,1,.3-7.37,6.21,6.21,0,0,1,1.58-2.73,2.33,2.33,0,0,1,1.64-.55,3.1,3.1,0,0,0,.69-.08,2,2,0,0,0,.94-.56c.14-.12.3-.26.51-.41a10.26,10.26,0,0,1,5.13-2,14.8,14.8,0,0,1,7,.58,8.87,8.87,0,0,1,5.25,4.76,12.06,12.06,0,0,1,.53,5.6c0,.57-.07,1.15-.08,1.73A9.8,9.8,0,0,1,108.13,72a11.22,11.22,0,0,1-6.22,3.23A15.58,15.58,0,0,1,99.12,75.48Zm-8.46-2.91h.13A2.52,2.52,0,0,1,92,73a9.14,9.14,0,0,0,3.19,1.08,18.23,18.23,0,0,0,6.58.17,10.18,10.18,0,0,0,5.65-2.91,8.86,8.86,0,0,0,2.47-5.94c0-.59.05-1.18.08-1.78a11.28,11.28,0,0,0-.45-5.13,7.85,7.85,0,0,0-4.66-4.19,13.9,13.9,0,0,0-6.53-.53,9.3,9.3,0,0,0-4.64,1.84L93.2,56a3,3,0,0,1-1.33.77,3.67,3.67,0,0,1-.94.12,1.35,1.35,0,0,0-1,.29,5,5,0,0,0-1.29,2.27,13,13,0,0,0-.27,6.83,16.2,16.2,0,0,0,1,2.9,17.45,17.45,0,0,1,1.1,3.1h0c.06.27.11.34.12.34Z" fill="#231f20"></path><path d="M120.63,143.58c-2.82-13.16-8-55.78-9.28-56.34-3-1.39-19-2.95-22.66,3.21-1.13,1.93-1.87,43.94-.42,55.14Z" fill="#fff"></path><path d="M88.27,146.11a.52.52,0,0,1-.51-.45c-1.45-11.2-.75-53.36.49-55.47,3.89-6.64,20.42-4.74,23.31-3.42.78.35,1.48,4.28,4.7,26.26,1.75,12,3.56,24.3,4.87,30.44a.51.51,0,0,1-.47.62l-32.35,2Zm13.81-59.6c-5.25,0-11.06,1-12.94,4.2-1,2-1.86,41.93-.41,54.33L120,143.1c-1.31-6.34-3.06-18.32-4.76-29.92-1.66-11.32-3.53-24.12-4.22-25.52A28.73,28.73,0,0,0,102.08,86.51ZM111,87.6Z" fill="#231f20"></path><polygon points="105.26 93.31 103.22 98.11 108.16 126.69 104.65 132.64 98.97 128.47 100.96 97.88 95.9 91.61 105.26 93.31" fill="#231f20"></polygon><path d="M104.65,133.14a.45.45,0,0,1-.29-.1l-5.69-4.17a.48.48,0,0,1-.2-.43l2-30.4-4.94-6.12a.48.48,0,0,1,0-.56.5.5,0,0,1,.52-.24l9.36,1.69a.52.52,0,0,1,.35.26.5.5,0,0,1,0,.43l-2,4.67,4.91,28.43a.5.5,0,0,1-.06.34l-3.51,6a.49.49,0,0,1-.33.23Zm-5.17-4.91,5,3.68,3.13-5.32-4.9-28.4a.45.45,0,0,1,0-.28l1.8-4.22-7.43-1.35,4.22,5.22a.54.54,0,0,1,.11.35Z" fill="#231f20"></path><path d="M97.39,158.72l-4.53-70.5,15.42-.55-.43,69.94h16.28c-2.26-19.93-2.48-67.12-4.37-69.17-7.1-7.71-25.29-5.13-25.29-5.13s-13.11.63-17.26,8.3c-1,1.93-1.46,60-1.32,68.33Z" fill="#2f55d4"></path><path d="M107.07,83.09l.83,5.38s-.85,7.83-6.77,6.46a12.78,12.78,0,0,1-8.27-6.71L92.11,74s4.35-2.38,3-11.88a29.28,29.28,0,0,0,15.36,2s2.11,9.77,1.44,14.35A5.06,5.06,0,0,1,107.07,83.09Z" fill="#fff"></path><path d="M102.47,95.6a6.3,6.3,0,0,1-1.46-.17,13.16,13.16,0,0,1-8.62-7,.48.48,0,0,1,0-.18L91.59,74a.52.52,0,0,1,.27-.48s4-2.38,2.72-11.34a.51.51,0,0,1,.73-.54,29.15,29.15,0,0,0,15.07,2,.5.5,0,0,1,.58.4c.08.4,2.12,9.92,1.44,14.54a5.54,5.54,0,0,1-4.74,5l.75,4.85a.29.29,0,0,1,0,.13c0,.18-.5,4.33-3.13,6.2A4.71,4.71,0,0,1,102.47,95.6Zm-9.1-7.51a12.32,12.32,0,0,0,7.88,6.33,4.09,4.09,0,0,0,3.43-.54c2.1-1.48,2.63-4.9,2.7-5.41l-.82-5.31a.53.53,0,0,1,.12-.41.49.49,0,0,1,.38-.18,4.52,4.52,0,0,0,4.32-4.17c.57-3.88-.93-11.73-1.34-13.71A30.2,30.2,0,0,1,95.71,63c.88,7.75-2.11,10.61-3.07,11.31Z" fill="#231f20"></path><path d="M104,69.84s2.81,5.16,2,5.93-3,0-3,0" fill="#fff"></path><path d="M104.81,76.62a6.58,6.58,0,0,1-2-.36.5.5,0,0,1-.3-.64.49.49,0,0,1,.64-.3c.6.21,2,.51,2.46.08.19-.43-.76-2.93-2.06-5.32a.49.49,0,0,1,.19-.68.5.5,0,0,1,.68.2c1.37,2.51,2.8,5.68,1.86,6.54A2.24,2.24,0,0,1,104.81,76.62Z" fill="#231f20"></path><ellipse cx="101.24" cy="68.9" rx="0.58" ry="1.33" transform="translate(-2.81 4.32) rotate(-2.41)" fill="#231f20"></ellipse><ellipse cx="108.85" cy="68.9" rx="0.58" ry="1.33" transform="translate(-2.8 4.64) rotate(-2.41)" fill="#231f20"></ellipse><path d="M95.9,71.55a8.17,8.17,0,0,0-2-2.31,2.79,2.79,0,0,0-1.52-.67,2.53,2.53,0,0,0-1.3.39,4.79,4.79,0,0,0-2.28,3.19A3.9,3.9,0,0,0,88.84,74a4.24,4.24,0,0,0,1.84,2.21,12.46,12.46,0,0,0,2.7,1.17" fill="#fff"></path><path d="M93.38,77.9l-.17,0a13.28,13.28,0,0,1-2.8-1.22,4.73,4.73,0,0,1-2.06-2.5,4.27,4.27,0,0,1-.08-2.11,5.33,5.33,0,0,1,2.52-3.54,2.83,2.83,0,0,1,1.58-.45,3.25,3.25,0,0,1,1.81.77,8.8,8.8,0,0,1,2.17,2.46.52.52,0,0,1-.19.71.51.51,0,0,1-.7-.19,7.74,7.74,0,0,0-1.91-2.16,2.2,2.2,0,0,0-1.22-.56,1.82,1.82,0,0,0-1,.32,4.26,4.26,0,0,0-2,2.84,3.42,3.42,0,0,0,0,1.6A3.78,3.78,0,0,0,91,75.79a12.72,12.72,0,0,0,2.59,1.11.51.51,0,0,1,.32.65A.52.52,0,0,1,93.38,77.9Z" fill="#231f20"></path><path d="M107.07,83.09a16.21,16.21,0,0,1-9.93-1.64s5.06,7.78,10.71,6.68Z" fill="#231f20"></path><path d="M106.73,88.74c-5.38,0-9.81-6.71-10-7a.51.51,0,0,1,0-.61.5.5,0,0,1,.6-.11A15.79,15.79,0,0,0,107,82.6a.49.49,0,0,1,.6.41l.78,5a.49.49,0,0,1-.4.56A6.21,6.21,0,0,1,106.73,88.74Zm-8-6.06c1.68,2,5,5.38,8.59,5l-.63-4A16.65,16.65,0,0,1,98.69,82.68Z" fill="#231f20"></path><path d="M99.56,73.77a4.87,4.87,0,1,1,4.86-4.86A4.87,4.87,0,0,1,99.56,73.77Zm0-8.7a3.84,3.84,0,1,0,3.83,3.84A3.84,3.84,0,0,0,99.56,65.07Z" fill="#231f20"></path><path d="M108.94,73.77a4.87,4.87,0,1,1,4.86-4.86A4.87,4.87,0,0,1,108.94,73.77Zm0-8.7a3.84,3.84,0,1,0,3.83,3.84A3.84,3.84,0,0,0,108.94,65.07Z" fill="#231f20"></path><path d="M165.1,101.94c0-.67,3.32-2.49,3.86-3l5.93-5.74A3.49,3.49,0,0,1,177,92a.7.7,0,0,1,.43.09c.38.25.2.84,0,1.23a37.57,37.57,0,0,1-3,4.47q4.31-2.7,8.76-5.14c.46-.25,1-.5,1.49-.22a1.28,1.28,0,0,1,.49.87,6.13,6.13,0,0,1-1,4.09c-2.22,3.93-6,6.6-9.79,8.86-1.84,1.09-3.43,2.36-5.22,3.54-.35.24-3.62,2-3.61,2.39Z" fill="#fff"></path><path d="M165.55,112.64a.51.51,0,0,1-.51-.49L164.58,102h0c0-.67.85-1.31,2.85-2.6a13.24,13.24,0,0,0,1.17-.81l3.92-3.79,2-2A4,4,0,0,1,177,91.43a1.25,1.25,0,0,1,.75.18c.54.37.6,1.12.13,1.92s-1,1.62-1.5,2.4c2.16-1.3,4.36-2.57,6.56-3.78a2,2,0,0,1,2-.21,1.71,1.71,0,0,1,.72,1.21,6.47,6.47,0,0,1-1,4.45c-2.32,4.11-6.35,6.88-10,9-1.1.65-2.09,1.36-3.13,2.1-.68.48-1.35,1-2.06,1.43-.08.06-.31.19-.62.36a23.75,23.75,0,0,0-2.79,1.76.51.51,0,0,1-.46.35Zm.07-10.66.4,9c.5-.34,1.23-.77,2.3-1.39.28-.15.49-.27.56-.32.7-.46,1.36-.93,2-1.41,1-.72,2.07-1.47,3.2-2.15,3.52-2.09,7.41-4.76,9.61-8.66a5.53,5.53,0,0,0,.91-3.74.82.82,0,0,0-.25-.54c-.25-.15-.79.15-1,.24-2.95,1.62-5.89,3.34-8.73,5.13a.52.52,0,0,1-.66-.09.5.5,0,0,1,0-.66A39.47,39.47,0,0,0,177,93a1.17,1.17,0,0,0,.18-.56s0,0-.09,0h0a3.06,3.06,0,0,0-1.77,1.09l-2,2-3.92,3.79a10.07,10.07,0,0,1-1.33.93A13.84,13.84,0,0,0,165.62,102Zm0-.07Z" fill="#231f20"></path><path d="M119.76,88.44s16.73,13.75,19.94,15.34,27-5.61,27-5.61l6.35,11.21s-24.61,12.21-34.51,11.83-22.28-17.42-22.28-17.42" fill="#2f55d4"></path><path d="M173.18,103.77a.49.49,0,0,1-.3-.1.52.52,0,0,1-.12-.72c2.16-3,1.23-4.89,1.19-5a.52.52,0,0,1,.91-.49c0,.09,1.3,2.47-1.26,6A.52.52,0,0,1,173.18,103.77Z" fill="#231f20"></path><path d="M104.2,79.57a6.56,6.56,0,0,1-5.61-3.17.5.5,0,0,1,.13-.7.51.51,0,0,1,.7.14,5.64,5.64,0,0,0,7,2.31.5.5,0,0,1,.41.91A7.05,7.05,0,0,1,104.2,79.57Z" fill="#231f20"></path><path d="M121.57,126.26h0a.51.51,0,0,1-.46-.56l2.56-26.32a.52.52,0,0,1,1,.1l-2.56,26.32A.53.53,0,0,1,121.57,126.26Z" fill="#231f20"></path><polygon points="92.69 138.54 99 108.31 127.17 110.47 119.39 141.41 92.69 138.54" fill="#fff"></polygon><path d="M119.39,141.93h-.06l-26.7-2.87a.56.56,0,0,1-.36-.21.51.51,0,0,1-.09-.41l6.32-30.23a.51.51,0,0,1,.54-.41L127.21,110a.52.52,0,0,1,.38.21.51.51,0,0,1,.08.43l-7.78,30.94A.52.52,0,0,1,119.39,141.93Zm-26.08-3.84L119,140.85l7.52-29.91-27.11-2.08Z" fill="#231f20"></path><path d="M86.55,124.62s6.73-4.53,9.16-5.42c3.3-1.2,6.35-1.56,6.78.15s-.81,6-2.13,7-4.19,1.86-5.79,3.42-8,3.56-8,3.56Z" fill="#fff"></path><path d="M86.55,133.82a.54.54,0,0,1-.51-.52v-8.68a.5.5,0,0,1,.22-.43c.28-.19,6.81-4.57,9.28-5.47,1.72-.64,4.86-1.57,6.49-.7a1.83,1.83,0,0,1,1,1.2c.46,1.83-.76,6.32-2.32,7.51A13.15,13.15,0,0,1,98.39,128a13.29,13.29,0,0,0-3.46,2.11c-1.68,1.63-8,3.6-8.22,3.68A.45.45,0,0,1,86.55,133.82Zm.52-8.93v7.7c2.08-.69,6-2.14,7.14-3.22a14.37,14.37,0,0,1,3.73-2.3,13.62,13.62,0,0,0,2.11-1.15c1.12-.86,2.33-4.89,1.94-6.45a.81.81,0,0,0-.44-.54c-.92-.49-3-.2-5.66.76C93.79,120.46,88.26,124.1,87.07,124.89Z" fill="#231f20"></path><path d="M79.81,88.44s-30.93,32.78-30.93,47.21S87.53,135,87.53,135l.74-13.48L68.58,127l19-18.66Z" fill="#2f55d4"></path><path d="M64,128.78a.51.51,0,0,1-.5-.38.5.5,0,0,1,.36-.63L88.14,121a.51.51,0,1,1,.27,1l-24.33,6.78Z" fill="#231f20"></path><path d="M73.45,124.29a.52.52,0,0,1-.38-.87l11.55-12.67a.52.52,0,0,1,.76.7L73.83,124.12A.52.52,0,0,1,73.45,124.29Z" fill="#231f20"></path><path d="M74.77,252.58a18.86,18.86,0,0,0-.1,4.9c.33,2.11,24.8,9,25.22,4.49s-14-11.08-14-11.08S77.48,254,74.77,252.58Z" fill="#231f20"></path><path d="M96.24,264c-6.32,0-21.7-4.09-22.07-6.4a19.33,19.33,0,0,1,.11-5.06.48.48,0,0,1,.26-.37.53.53,0,0,1,.46,0c2.06,1.07,8.44-.87,10.72-1.71a.55.55,0,0,1,.38,0c1.51.69,14.72,6.87,14.28,11.58-.11,1.21-1.36,1.86-3.72,1.93Zm-21-10.7a17.13,17.13,0,0,0,0,4.15c.69,1.38,17,6.48,22.79,5.42.91-.17,1.4-.48,1.44-.91.31-3.34-9.48-8.61-13.52-10.49C84.48,251.93,78.22,254.06,75.19,253.26Z" fill="#231f20"></path><path d="M115,250.4s-2.52,5.35,0,7.59,25.67,6.31,25.11,3.08-15.28-11.77-15.28-11.77S118.05,251.22,115,250.4Z" fill="#231f20"></path><path d="M136.25,262.76c-6.73,0-19.54-2.55-21.62-4.4-2.77-2.46-.23-7.94-.12-8.17a.5.5,0,0,1,.58-.27c2.92.78,9.5-1.08,9.56-1.1a.48.48,0,0,1,.39,0c1.53.89,14.94,8.77,15.52,12.13a1.12,1.12,0,0,1-.67,1.24A8.56,8.56,0,0,1,136.25,262.76Zm-21-11.78c-.49,1.19-1.83,5,0,6.63,2.25,2,21.18,5.38,24.11,3.75.19-.11.18-.17.18-.2-.38-2.16-9.23-8-14.86-11.33C123.59,250.14,118.27,251.52,115.26,251Z" fill="#231f20"></path><circle cx="117.05" cy="50.86" r="1.54" fill="#2f55d4"></circle><circle cx="122.05" cy="50.86" r="1.54" fill="#2f55d4"></circle><circle cx="127.05" cy="50.86" r="1.54" fill="#2f55d4"></circle><path d="M316.11,206.14s2.91,32.45,6.67,46.44c.65,2.41,9,2.55,11.14,1.16s-1.61-45.46-1.62-45.53Z" fill="#fff"></path><path d="M329.07,255.14a14.39,14.39,0,0,1-4.86-.72,2.81,2.81,0,0,1-1.93-1.71c-3.73-13.87-6.65-46.2-6.68-46.52a.53.53,0,0,1,.15-.42.53.53,0,0,1,.43-.14l16.18,2.06a.51.51,0,0,1,.44.41c.09.41,4,44.4,1.4,46.07A10.78,10.78,0,0,1,329.07,255.14Zm-12.38-48.4c.43,4.62,3.17,33,6.58,45.71.1.36.56.72,1.3,1,2.63,1,7.65.77,9.07-.15,1.53-2-1.25-38.65-1.82-44.64Z" fill="#231f20"></path><path d="M286.73,203.21l-1,44.61s6.41,4.86,11.25,3.74l5.87-46.08Z" fill="#fff"></path><path d="M295.46,252.25c-4.67,0-9.79-3.84-10-4a.54.54,0,0,1-.2-.43l1-44.6a.51.51,0,0,1,.18-.38.54.54,0,0,1,.41-.12L302.93,205a.52.52,0,0,1,.44.58l-5.86,46.09a.53.53,0,0,1-.4.44A7.58,7.58,0,0,1,295.46,252.25Zm-9.2-4.69c1.09.78,6.24,4.23,10.27,3.57l5.75-45.21-15-2.11Z" fill="#231f20"></path><path d="M286.63,144.3l-4.35,72.29s39,9.82,55.18,2.18c0,0-4.73-56.16-14.13-74.09Z" fill="#231f20"></path><path d="M319.9,222.19A128.7,128.7,0,0,1,303.74,221a206.57,206.57,0,0,1-21.58-4,.51.51,0,0,1-.38-.52l4.35-72.29a.5.5,0,0,1,.5-.47h0l36.7.38a.51.51,0,0,1,.44.27c9.35,17.81,14.14,73.72,14.19,74.28a.49.49,0,0,1-.29.49C333.48,221.2,327.53,222.19,319.9,222.19Zm-37.1-6c4.15,1,39,9.06,54.13,2.25-.42-4.75-5.13-56.11-13.91-73.28l-35.92-.37Z" fill="#231f20"></path><path d="M263.54,139.91s-2.54,1.74-4.39,1.53-6-.89-6.17,1.34,4.63,9.42,4.62,9.49,11.07-6.53,11.07-6.53Z" fill="#fff"></path><path d="M257.49,152.75a.38.38,0,0,1-.15-.05.57.57,0,0,1-.19-.22c0-.06-.12-.19-.24-.39-3.07-4.89-4.52-7.94-4.43-9.34a1.84,1.84,0,0,1,.68-1.36c1.25-1,3.9-.71,5.66-.5l.38.05c1.66.2,4-1.43,4.06-1.44a.49.49,0,0,1,.66.08l5.13,5.83a.54.54,0,0,1,.12.41.52.52,0,0,1-.24.35C259.27,151.92,257.88,152.75,257.49,152.75ZM256,141.67a3.77,3.77,0,0,0-2.22.49.85.85,0,0,0-.31.65c0,.8.65,3,4.27,8.75l0,0c1.43-.82,6.43-3.79,10.12-6l-4.45-5.06c-.81.5-2.75,1.56-4.36,1.37l-.4,0A22,22,0,0,0,256,141.67Z" fill="#231f20"></path><path d="M291.49,92.69S280,125.17,276.16,126.9s-15.25,11.59-15.25,11.59l6.48,9.94s13.75-8.62,19.45-13.74S291.49,92.69,291.49,92.69Z" fill="#2f55d4"></path><rect x="236.87" y="137.95" width="24.21" height="30.49" transform="translate(-43 138.7) rotate(-28.76)" fill="#fff"></rect><path d="M245.7,172.9a.39.39,0,0,1-.15,0,.48.48,0,0,1-.3-.24l-14.68-26.73a.52.52,0,0,1,.21-.7L252,133.55a.55.55,0,0,1,.4,0,.5.5,0,0,1,.3.25l14.68,26.73a.52.52,0,0,1-.21.7L246,172.84A.57.57,0,0,1,245.7,172.9Zm-14-27,14.17,25.83,20.32-11.16-14.17-25.82Z" fill="#231f20"></path><path d="M311.26,65.8c2.21,2.29,2.59,4.15,3.35,7.09a37.62,37.62,0,0,0,3.15,7.83c2.64,5.1,5.95,9.87,8,15.28a14.76,14.76,0,0,1,1.14,5.73,11.34,11.34,0,0,1-5.38,8.84,16.89,16.89,0,0,1-10.33,2.3,9.86,9.86,0,0,1-4-1,9.4,9.4,0,0,1-3.35-3.45,28.93,28.93,0,0,1-3.53-10.47c-.54-3.13-1-6.37-3.45-8.7-1.81-1.73-4.36-2.38-6.48-3.71a12.46,12.46,0,0,1-5.63-10c-.12-3.87,1.6-6.52,3.6-9.6,1-1.5,3.66-4.58,5.24-1.51-.67-1.29,2.13-3.32,3.05-3.59a14,14,0,0,1,6,.2A16.84,16.84,0,0,1,311.26,65.8Z" fill="#fff"></path><path d="M312.69,113.39c-.52,0-1,0-1.57-.06a10.66,10.66,0,0,1-4.19-1.07,9.69,9.69,0,0,1-3.52-3.61A29.71,29.71,0,0,1,299.82,98l-.05-.3c-.51-2.95-1-6-3.27-8.14a13.7,13.7,0,0,0-3.81-2.31,23.57,23.57,0,0,1-2.59-1.34,12.86,12.86,0,0,1-5.85-10.42c-.12-4,1.63-6.7,3.65-9.82.37-.56,2.16-3.16,4-3.06a1.94,1.94,0,0,1,1.25.52,6.86,6.86,0,0,1,3.28-2.79,14.49,14.49,0,0,1,6.24.19,17.33,17.33,0,0,1,8.87,4.94h0c2.18,2.25,2.67,4.17,3.35,6.83l.12.47a37,37,0,0,0,3.12,7.72c.89,1.74,1.88,3.46,2.84,5.13a69.21,69.21,0,0,1,5.15,10.21,15,15,0,0,1,1.17,5.91,11.76,11.76,0,0,1-5.6,9.2A16.83,16.83,0,0,1,312.69,113.39ZM291.84,63.53c-1,0-2.32,1.34-3.15,2.6-2,3-3.64,5.63-3.52,9.34a11.9,11.9,0,0,0,5.41,9.67,25.74,25.74,0,0,0,2.5,1.3,14.44,14.44,0,0,1,4.05,2.47c2.46,2.35,3,5.55,3.54,8.64l.05.31a28.93,28.93,0,0,0,3.46,10.31,8.86,8.86,0,0,0,3.19,3.29,9.62,9.62,0,0,0,3.82,1,16.48,16.48,0,0,0,10.05-2.24,10.86,10.86,0,0,0,5.18-8.47,14.21,14.21,0,0,0-1.12-5.55,68.43,68.43,0,0,0-5.08-10.08c-1-1.67-2-3.41-2.86-5.16A37,37,0,0,1,314.17,73l-.12-.46c-.67-2.62-1.11-4.34-3.12-6.43a16.46,16.46,0,0,0-8.41-4.67c-1.44-.3-4.1-.72-5.79-.22A6,6,0,0,0,294,63.59c-.15.36-.06.53,0,.58a.47.47,0,0,1-.2.62.47.47,0,0,1-.62-.2h0c-.35-.69-.76-1-1.24-1.06Z" fill="#231f20"></path><path d="M326.36,147.24c-.12,1.08-22.68.63-24.29.51-4.15-.3-12.15-.4-15.44-3.45-2.31-2.14,0-6.53.21-9.61a89.84,89.84,0,0,0-.61-14.66,67.28,67.28,0,0,1,.75-18.8c.73-4,1.58-6.89,4.51-8.54,4.64-2.61,11.5-3.87,16.84-4.26,2.58-.19,13.49,5.39,15.9,10.54S326.37,146.52,326.36,147.24Z" fill="#2f55d4"></path><path d="M287.54,125a.5.5,0,0,1-.48-.34c-4.46-13.36.89-29.08.94-29.24a.5.5,0,0,1,.64-.3.5.5,0,0,1,.31.63c-.05.16-5.3,15.56-.94,28.59a.49.49,0,0,1-.32.63A.4.4,0,0,1,287.54,125Z" fill="#231f20"></path><path d="M307.19,98s-7.16,13.31-9,19.16-6.07,15.61-6.07,15.61-2.1-21.39,4.86-38.89Z" fill="#231f20"></path><path d="M292.08,133.18H292a.44.44,0,0,1-.37-.39c0-.21-2-21.7,4.9-39.1a.42.42,0,0,1,.23-.24.45.45,0,0,1,.34,0l10.25,4.12a.43.43,0,0,1,.22.61c-.07.14-7.16,13.35-9,19.1s-6,15.54-6.09,15.64A.43.43,0,0,1,292.08,133.18Zm5.11-38.76c-5.51,14.19-5.11,31-4.8,36.45,1.28-3.05,3.95-9.56,5.34-13.87,1.71-5.3,7.58-16.43,8.84-18.81Z" fill="#231f20"></path><path d="M295.7,90.68l1.44,7.6s1.69,5.81,5.35,4.45a12,12,0,0,0,6.89-6.68L308.09,80.7a27.49,27.49,0,0,1-1.25-8.21,16.24,16.24,0,0,1-7.28-1.62c-.9-.41-5.78-2.2-5.5-3.45-.69,3.11-1.47,6.38-3.63,8.73a3.58,3.58,0,0,0-.79,1.08,2.77,2.77,0,0,0-.09,1c.05,3.24,0,6.41.77,9.57C291.37,91.9,295.7,90.68,295.7,90.68Z" fill="#fff"></path><path d="M301.4,103.4a3.26,3.26,0,0,1-1.45-.35c-2.2-1.11-3.21-4.5-3.25-4.64l-1.37-7.19a5.38,5.38,0,0,1-3.46-.51,4.35,4.35,0,0,1-2-2.84,34.81,34.81,0,0,1-.77-8.33l0-1.35A2.52,2.52,0,0,1,290,76l.11-.12c2.14-2.33,2.88-5.62,3.52-8.53a.46.46,0,1,1,.9.2c0,.16.19.83,4.6,2.67.28.11.5.2.64.27A15.92,15.92,0,0,0,306.82,72a.48.48,0,0,1,.33.12.45.45,0,0,1,.14.32,25.39,25.39,0,0,0,1.06,7.4,3.41,3.41,0,0,1,.19.78c0,.13,1.3,15.35,1.3,15.35a.58.58,0,0,1,0,.19,12.32,12.32,0,0,1-7.16,7A3.55,3.55,0,0,1,301.4,103.4Zm-3.81-5.2s.93,3.1,2.77,4a2.37,2.37,0,0,0,2,.08A11.65,11.65,0,0,0,308.92,96c-1.29-15.27-1.29-15.26-1.29-15.29a4.07,4.07,0,0,0-.15-.55A25.82,25.82,0,0,1,306.39,73a17,17,0,0,1-7-1.67l-.61-.26a17.73,17.73,0,0,1-4.51-2.37c-.62,2.63-1.48,5.62-3.48,7.8l-.12.13a1.67,1.67,0,0,0-.64,1.58v1.36a33.66,33.66,0,0,0,.74,8.11,3.46,3.46,0,0,0,1.57,2.27,4.73,4.73,0,0,0,3.24.33.44.44,0,0,1,.37.05.48.48,0,0,1,.2.3l1.45,7.61Z" fill="#231f20"></path><path d="M296.68,95.86a11.89,11.89,0,0,0,5.08-3.33,6.22,6.22,0,0,0,1.76-4.91,17.26,17.26,0,0,1-7.82,3.06Z" fill="#231f20"></path><path d="M296.68,96.3a.46.46,0,0,1-.23-.06.42.42,0,0,1-.2-.3l-1-5.18a.45.45,0,0,1,.09-.35.43.43,0,0,1,.32-.17,17,17,0,0,0,7.59-3,.47.47,0,0,1,.43-.06.45.45,0,0,1,.27.33,6.61,6.61,0,0,1-1.87,5.28,12.45,12.45,0,0,1-5.29,3.47Zm-.46-5.23.8,4.21a11.78,11.78,0,0,0,4.41-3,6.21,6.21,0,0,0,1.68-3.81A17.16,17.16,0,0,1,296.22,91.07Z" fill="#231f20"></path><path d="M296.81,75.13s-2.66,4.39-1.95,5.1,2.59.14,2.59.14" fill="#fff"></path><path d="M296,81a2.11,2.11,0,0,1-1.49-.48c-.79-.79.6-3.51,1.89-5.65a.45.45,0,0,1,.61-.15.44.44,0,0,1,.15.61c-1.23,2-2.17,4.18-2,4.59.37.36,1.6.16,2.13,0a.44.44,0,0,1,.26.84A5.78,5.78,0,0,1,296,81Z" fill="#231f20"></path><ellipse cx="292.41" cy="77.3" rx="0.49" ry="0.92" transform="translate(-0.37 1.42) rotate(-0.28)" fill="#231f20"></ellipse><ellipse cx="300.43" cy="76.25" rx="0.49" ry="0.92" transform="translate(-0.37 1.46) rotate(-0.28)" fill="#231f20"></ellipse><path d="M304.92,76.28c.53-1.59,2.48-2.25,4-2a2.54,2.54,0,0,1,2.15,1.84,4.75,4.75,0,0,1,.1,1.84,9.68,9.68,0,0,1-1,3.28,3.44,3.44,0,0,1-1.05,1.33,1.75,1.75,0,0,1-2,0" fill="#fff"></path><path d="M308.25,83.3a2.52,2.52,0,0,1-1.3-.4.46.46,0,0,1,.49-.78,1.29,1.29,0,0,0,1.48,0,3.09,3.09,0,0,0,.89-1.16,9.21,9.21,0,0,0,.92-3.12,4.15,4.15,0,0,0-.09-1.66,2.08,2.08,0,0,0-1.78-1.52c-1.35-.2-3.07.39-3.5,1.71a.46.46,0,1,1-.87-.29c.59-1.79,2.76-2.59,4.51-2.32A3,3,0,0,1,311.52,76a5.22,5.22,0,0,1,.12,2,9.85,9.85,0,0,1-1,3.43,3.85,3.85,0,0,1-1.19,1.51A2.11,2.11,0,0,1,308.25,83.3Z" fill="#231f20"></path><path d="M266,122.67l1.45-.78a1.76,1.76,0,0,0,.35-2.43L256.56,98.63a1.82,1.82,0,0,0-2.25-1.06l-1.45.77a1.77,1.77,0,0,0-.35,2.44L263.8,121.6A1.8,1.8,0,0,0,266,122.67Z" fill="#fff"></path><path d="M265.49,123.3a2.54,2.54,0,0,1-2.13-1.46L252.07,101A2.7,2.7,0,0,1,251.8,99a1.72,1.72,0,0,1,.82-1l1.46-.77A2.26,2.26,0,0,1,257,98.39l11.29,20.83a2.69,2.69,0,0,1,.27,2.07,1.68,1.68,0,0,1-.82,1l-1.46.78A1.64,1.64,0,0,1,265.49,123.3ZM254.86,97.94a.64.64,0,0,0-.31.07l-1.46.78a.74.74,0,0,0-.34.44,1.79,1.79,0,0,0,.2,1.31l11.29,20.83c.38.71,1.1,1.1,1.56.85h0l1.46-.77a.73.73,0,0,0,.34-.45,1.77,1.77,0,0,0-.2-1.3L256.12,98.87A1.62,1.62,0,0,0,254.86,97.94Z" fill="#231f20"></path><polyline points="253.99 101.58 242.89 81.16 245.03 80.02" fill="#231f20"></polyline><path d="M254,102.08a.49.49,0,0,1-.44-.26l-11.1-20.43a.5.5,0,0,1,0-.38.53.53,0,0,1,.25-.3l2.13-1.13a.51.51,0,0,1,.68.2.5.5,0,0,1-.21.68l-1.69.9,10.86,20a.5.5,0,0,1-.2.68A.53.53,0,0,1,254,102.08Z" fill="#231f20"></path><ellipse cx="250.58" cy="90.23" rx="9.38" ry="11.62" transform="translate(-12.02 134.65) rotate(-29.4)" fill="#231f20"></ellipse><path d="M252.41,101.85c-4,0-8.18-2.6-10.55-7h0a13.19,13.19,0,0,1-1.28-10,8.77,8.77,0,0,1,4.21-5.32c4.81-2.57,11.32.13,14.51,6a13.19,13.19,0,0,1,1.27,10,8.76,8.76,0,0,1-4.21,5.33A8.41,8.41,0,0,1,252.41,101.85Zm-9.68-7.45c2.93,5.39,8.84,7.91,13.16,5.6a7.71,7.71,0,0,0,3.73-4.73,12.21,12.21,0,0,0-1.2-9.21c-2.93-5.39-8.84-7.9-13.16-5.6a7.66,7.66,0,0,0-3.72,4.73,12.2,12.2,0,0,0,1.19,9.21Z" fill="#231f20"></path><ellipse cx="248.44" cy="91.37" rx="9.38" ry="11.62" transform="translate(-12.86 133.75) rotate(-29.4)" fill="#fff"></ellipse><path d="M250.27,103c-4,0-8.18-2.61-10.55-7a13.19,13.19,0,0,1-1.28-10,8.77,8.77,0,0,1,4.22-5.33c4.81-2.56,11.31.14,14.5,6a13.24,13.24,0,0,1,1.28,10,8.79,8.79,0,0,1-4.22,5.32A8.3,8.3,0,0,1,250.27,103Zm-3.65-22.25a7.33,7.33,0,0,0-3.49.86,7.64,7.64,0,0,0-3.73,4.73,12.21,12.21,0,0,0,1.2,9.21c2.93,5.39,8.83,7.9,13.15,5.6a7.68,7.68,0,0,0,3.73-4.73,12.21,12.21,0,0,0-1.2-9.21C254.09,83.16,250.24,80.74,246.62,80.74Z" fill="#231f20"></path><ellipse cx="248.44" cy="91.37" rx="6.51" ry="8.06" transform="translate(-12.86 133.75) rotate(-29.4)" fill="#fff"></ellipse><path d="M249.71,99.58a8.87,8.87,0,0,1-7.45-4.91,9.29,9.29,0,0,1-.9-7,6.27,6.27,0,0,1,3-3.79c3.41-1.81,8,.09,10.26,4.23a9.33,9.33,0,0,1,.9,7,6.25,6.25,0,0,1-3,3.78A5.87,5.87,0,0,1,249.71,99.58Zm-2.53-15.43a5,5,0,0,0-2.35.58,5.14,5.14,0,0,0-2.51,3.19,8.27,8.27,0,0,0,.82,6.27c2,3.66,6,5.38,8.91,3.82a5.14,5.14,0,0,0,2.51-3.19,8.26,8.26,0,0,0-.82-6.27A7.88,7.88,0,0,0,247.18,84.15Z" fill="#231f20"></path><path d="M268.12,114.61l8.34,7.31-7.72,6.34c-3.62-6.18-4.3-10.34-6-10.46-2.42-.17-5.42-.6-6.14-2.78a6.48,6.48,0,0,1-.33-4.13,1.81,1.81,0,0,1,.89-1.18,2.07,2.07,0,0,1,.86-.06c1.61.09,4.5.46,4.63.39.58-.35,1-.73.84-1.39C265.6,110.1,266.09,113.06,268.12,114.61Z" fill="#fff"></path><path d="M268.74,128.76h-.08a.49.49,0,0,1-.35-.24,62.1,62.1,0,0,1-3.31-6.6c-.93-2.07-1.61-3.57-2.29-3.62-2.81-.19-5.79-.72-6.58-3.11a6.84,6.84,0,0,1-.33-4.45,1.88,1.88,0,0,1,2.21-1.58c.79,0,1.81.15,2.71.24.71.07,1.49.15,1.77.16.5-.32.57-.52.51-.8a.51.51,0,0,1,.21-.52.5.5,0,0,1,.56,0,9.15,9.15,0,0,1,2.55,3.19,8.72,8.72,0,0,0,2.1,2.78l0,0,8.34,7.32a.49.49,0,0,1,.17.38.49.49,0,0,1-.18.38l-7.72,6.34A.52.52,0,0,1,268.74,128.76Zm-11.08-18.63a.72.72,0,0,0-.31.05c-.3.11-.48.53-.61.88a6,6,0,0,0,.34,3.81c.61,1.84,3.36,2.26,5.7,2.43,1.28.09,2,1.64,3.13,4.2a62.67,62.67,0,0,0,3,6l6.81-5.59L267.8,115a9.72,9.72,0,0,1-2.35-3.07,11.17,11.17,0,0,0-1.61-2.33,2.31,2.31,0,0,1-.94.86c-.19.12-.25.13-2.28-.08-.88-.09-1.89-.19-2.63-.23Z" fill="#231f20"></path><path d="M309.16,105.84c-6.78,8-17.66,20.4-17.66,20.4l-21.39-12.08-9.82,8.23s21.3,23.45,32.8,21.26a65.79,65.79,0,0,0,29.26-24.34" fill="#2f55d4"></path><path d="M291.55,144.27c-11.92,0-30.79-20.62-31.63-21.54a.51.51,0,0,1-.13-.37A.5.5,0,0,1,260,122l9.81-8.23a.5.5,0,0,1,.57-.06l21,11.88c1.71-1.95,11.27-12.85,17.38-20.09a.5.5,0,0,1,.77.65c-6.71,7.94-17.56,20.28-17.67,20.41a.5.5,0,0,1-.62.1l-21.1-11.9L261,122.44c2.82,3,21.69,22.68,32,20.71A65.9,65.9,0,0,0,321.93,119a.49.49,0,0,1,.69-.15.5.5,0,0,1,.15.69,66.92,66.92,0,0,1-29.51,24.54A9.54,9.54,0,0,1,291.55,144.27Z" fill="#231f20"></path><path d="M294.13,83.63l3.54-.74s.82,6-1.18,5.45S294.13,83.63,294.13,83.63Z" fill="#fff"></path><path d="M296.72,88.82a1.4,1.4,0,0,1-.34,0c-2.24-.57-2.65-4.64-2.69-5.1a.43.43,0,0,1,.35-.47l3.54-.74a.44.44,0,0,1,.35.07.45.45,0,0,1,.18.3c.1.76.57,4.63-.62,5.69A1.11,1.11,0,0,1,296.72,88.82ZM294.61,84c.18,1.26.74,3.62,2,3.93a.29.29,0,0,0,.3,0c.56-.5.57-2.75.39-4.44Z" fill="#231f20"></path><path d="M257.55,141.51a6.13,6.13,0,0,0-4.55,1.33.58.58,0,0,0-.18.2.46.46,0,0,0,0,.26,1.33,1.33,0,0,0,1,.92,3.78,3.78,0,0,0,1.46-.05l2.77-.45a1.38,1.38,0,0,0,.21,1.24,3,3,0,0,0,1,.84,7.15,7.15,0,0,0,1.74.71" fill="#fff"></path><path d="M261,147l-.13,0a7.65,7.65,0,0,1-1.87-.76,3.47,3.47,0,0,1-1.16-1,2,2,0,0,1-.36-.92l-2.12.35a4.31,4.31,0,0,1-1.65,0,1.83,1.83,0,0,1-1.43-1.32.89.89,0,0,1,0-.56,1,1,0,0,1,.33-.41,6.67,6.67,0,0,1,4.94-1.44.51.51,0,1,1-.12,1,5.61,5.61,0,0,0-4.17,1.22.84.84,0,0,0,.64.48,3.67,3.67,0,0,0,1.27-.06l2.77-.45a.5.5,0,0,1,.48.18.52.52,0,0,1,.08.51.9.9,0,0,0,.15.77,2.49,2.49,0,0,0,.83.68,6.34,6.34,0,0,0,1.62.66.53.53,0,0,1,.37.63A.51.51,0,0,1,261,147Z" fill="#231f20"></path><path d="M297,251.56s1,6.52.15,6.94-27.18,2.22-26.33-1.21c.46-1.86,6.62-5.85,14.93-9.47C288.26,252,295.05,251.17,297,251.56Z" fill="#231f20"></path><path d="M281.81,259.85c-6.14,0-9.84-.48-11-1.44a1.19,1.19,0,0,1-.47-1.24c.61-2.44,8.31-6.8,15.22-9.81a.5.5,0,0,1,.63.2c1.83,3.06,6.14,3.24,9,3.36a14.33,14.33,0,0,1,2,.15.51.51,0,0,1,.39.42c1.07,6.89.16,7.32-.13,7.46-.61.29-7.11.74-12.41.86C283.84,259.83,282.79,259.85,281.81,259.85Zm3.74-11.4c-8.47,3.73-13.89,7.47-14.26,9,0,0,0,.09.09.19,2.33,2.17,23.62.87,25.49.46.27-.6.06-3.49-.31-6.06-.38,0-.89-.06-1.45-.08C292.34,251.8,287.77,251.61,285.55,248.45Z" fill="#231f20"></path><path d="M322.78,252.58l.69,7.51c2.7,1.85,25.7,5.5,23.64,2.46s-12.86-11.24-12.86-11.24A11.52,11.52,0,0,1,322.78,252.58Z" fill="#231f20"></path><path d="M343.94,264.19c-6.37,0-18.93-2.44-20.75-3.69a.47.47,0,0,1-.22-.37l-.69-7.5a.49.49,0,0,1,.2-.45.48.48,0,0,1,.49-.06,11,11,0,0,0,11-1.19.48.48,0,0,1,.62,0c.44.34,10.88,8.29,13,11.36a1,1,0,0,1-.06,1.28C347,264,345.71,264.19,343.94,264.19Zm-20-4.4c3.36,1.88,21.73,4.38,22.82,3-1.87-2.66-10.75-9.55-12.51-10.9a12,12,0,0,1-10.9,1.39Z" fill="#231f20"></path><rect x="144.15" y="151.19" width="57.82" height="49.68" fill="#fff"></rect><path d="M202,201.39H144.15a.51.51,0,0,1-.51-.51V151.19a.51.51,0,0,1,.51-.51H202a.51.51,0,0,1,.52.51v49.69A.51.51,0,0,1,202,201.39Zm-57.3-1h56.79V151.71H144.67Z" fill="#231f20"></path><path d="M191.77,193.72H152.52a.47.47,0,0,1-.48-.48V160.72a.47.47,0,0,1,.48-.48.48.48,0,0,1,.48.48v32h38.77a.48.48,0,0,1,.48.48A.47.47,0,0,1,191.77,193.72Z" fill="#d1d3d4"></path><path d="M156.27,190.92a.5.5,0,0,1-.38-.19.48.48,0,0,1,.09-.67l33.58-25.8a.48.48,0,0,1,.67.09.49.49,0,0,1-.08.67l-33.59,25.8A.48.48,0,0,1,156.27,190.92Z" fill="#d1d3d4"></path><path d="M189,169.79h-.09a.48.48,0,0,1-.38-.56l.78-4.14-4.82-.25a.48.48,0,0,1-.46-.5.5.5,0,0,1,.51-.46l5.37.29a.45.45,0,0,1,.35.18.48.48,0,0,1,.09.38l-.88,4.67A.49.49,0,0,1,189,169.79Z" fill="#d1d3d4"></path></g></svg>