<svg height="492pt" viewBox="0 0 492 492" width="492pt" xmlns="http://www.w3.org/2000/svg" xmlns:xlink="http://www.w3.org/1999/xlink"><linearGradient id="a"><stop offset=".322" stop-color="#a163f5"/><stop offset=".466" stop-color="#b074ee"/><stop offset=".752" stop-color="#d8a1dd"/><stop offset=".898" stop-color="#efbad3"/></linearGradient><linearGradient id="b" gradientUnits="userSpaceOnUse" x1="31.373" x2="31.373" xlink:href="#a" y1="466" y2="25.632"/><linearGradient id="c" gradientUnits="userSpaceOnUse" x1="118.5" x2="118.5" xlink:href="#a" y1="466" y2="25.632"/><linearGradient id="d" gradientUnits="userSpaceOnUse" x1="159.445" x2="159.445" xlink:href="#a" y1="466" y2="25.632"/><linearGradient id="e" gradientUnits="userSpaceOnUse" x1="159.303" x2="159.303" xlink:href="#a" y1="466" y2="25.632"/><linearGradient id="f" gradientUnits="userSpaceOnUse" x1="383" x2="383" xlink:href="#a" y1="466" y2="25.632"/><linearGradient id="g" gradientUnits="userSpaceOnUse" x1="462.742" x2="462.742" xlink:href="#a" y1="466" y2="25.632"/><linearGradient id="h" gradientUnits="userSpaceOnUse" x1="345.342" x2="345.342" xlink:href="#a" y1="466" y2="25.632"/><linearGradient id="i" gradientUnits="userSpaceOnUse" x1="345.17" x2="345.17" xlink:href="#a" y1="466" y2="25.632"/><linearGradient id="j" gradientUnits="userSpaceOnUse" x1="326" x2="326" xlink:href="#a" y1="466" y2="25.632"/><linearGradient id="k" gradientUnits="userSpaceOnUse" x1="376" x2="376" xlink:href="#a" y1="466" y2="25.632"/><linearGradient id="l" gradientUnits="userSpaceOnUse" x1="276" x2="276" xlink:href="#a" y1="466" y2="25.632"/><linearGradient id="m" gradientUnits="userSpaceOnUse" x1="157" x2="157" xlink:href="#a" y1="466" y2="25.632"/><linearGradient id="n" gradientUnits="userSpaceOnUse" x1="107" x2="107" xlink:href="#a" y1="466" y2="25.632"/><linearGradient id="o" gradientUnits="userSpaceOnUse" x1="207" x2="207" xlink:href="#a" y1="466" y2="25.632"/><path d="m31.371094 446.519531c-6.441406-.132812-12.324219 3.648438-14.882813 9.566407-2.554687 5.917968-1.277343 12.792968 3.234375 17.394531 4.511719 4.601562 11.359375 6.019531 17.324219 3.582031 5.96875-2.4375 9.867187-8.242188 9.867187-14.683594.074219-8.667968-6.875-15.761718-15.542968-15.859375zm0 19.714844c-1.589844.136719-3.101563-.714844-3.804688-2.148437-.707031-1.433594-.460937-3.152344.621094-4.328126 1.078125-1.175781 2.769531-1.570312 4.257812-.988281 1.488282.578125 2.46875 2.011719 2.46875 3.609375.082032 2.039063-1.5 3.761719-3.542968 3.855469zm0 0" fill="url(#b)"/><path d="m221.460938 121h-124.03125c-4.109376.015625-8.046876 1.664062-10.941407 4.582031-2.894531 2.921875-4.507812 6.871094-4.488281 10.984375v104.054688l-53.835938 44.542968c-.160156.128907-.464843.269532-.601562.414063-5.445312 5.460937-8.523438 12.84375-8.5625 20.554687v125.867188h-3c-4.199219-.089844-8.257812 1.511719-11.265625 4.441406-3.007813 2.933594-4.7109375 6.945313-4.734375 11.148438v28.410156c.0117188 8.832031 7.167969 15.988281 16 16h105.398438c4.203124-.019531 8.21875-1.726562 11.152343-4.734375 2.933594-3.007813 4.535157-7.066406 4.449219-11.265625v-28.410156c0-8.542969-6-15.519532-15-15.957032v-24.667968c13.867188-2.546875 23.953125-14.613282 24-28.714844v-23.25h75.460938c8.566406 0 15.539062-7.46875 15.539062-16.039062v-202.398438c-.011719-8.582031-6.957031-15.539062-15.539062-15.5625zm-96.460938 355c0 2.210938-1.789062 4-4 4h-105c-2.210938 0-4-1.789062-4-4v-28c0-2.210938 1.789062-4 4-4h105c2.210938 0 4 1.789062 4 4zm9-97.75c-.167969 9.632812-8.03125 17.347656-17.664062 17.332031-3.378907-.023437-6.175782 2.625-6.335938 6v30.417969h-79v-125.867188c.054688-4.464843 1.828125-8.742187 4.949219-11.9375l46.050781-37.996093v39.851562l-27.859375 22.019531c-2.597656 2.046876-3.046875 5.8125-1 8.410157 2.046875 2.597656 5.808594 3.042969 8.40625 1l51.839844-41.050781.339843.34375c4.484376 4.496093 4.484376 11.769531 0 16.261718l-24.746093 24.746094c-1.042969 1.042969-1.664063 2.429688-1.75 3.902344l-.3125 5.398437c-.007813.113281-.011719.230469-.011719.347657.027344 4.316406 1.011719 8.578124 2.878906 12.46875 3.789063 8.09375 3.097656 17.570312-1.824218 25.027343-.640626.988281-.976563 2.144531-.960938 3.324219v11.664062c0 3.316407 2.6875 6 6 6s6-2.683593 6-6v-9.933593c4-7.691407 6.101562-16.980469 4.648438-24.980469h30.351562zm91-39.289062c0 1.953124-1.589844 4.039062-3.539062 4.039062h-121.703126c-.503906-1.679688-.789062-3.417969-.847656-5.171875l.167969-3.050781 23.132813-23.195313c9.160156-9.195312 9.160156-24.066406 0-33.261719l-4.125-4.140624c-2.128907-2.152344-5.542969-2.355469-7.910157-.46875l-16.175781 12.84375v-149.988282c-.023438-.929687.324219-1.832031.96875-2.5.644531-.671875 1.53125-1.054687 2.460938-1.066406h124.03125c1.957031.015625 3.539062 1.605469 3.539062 3.566406zm0 0" fill="url(#c)"/><path d="m159.445312 180.3125c-29.660156 0-53.703124 24.039062-53.703124 53.699219 0 29.65625 24.042968 53.699219 53.703124 53.699219 29.65625 0 53.699219-24.042969 53.699219-53.699219-.035156-29.644531-24.058593-53.664063-53.699219-53.699219zm0 95.40625c-23.03125 0-41.703124-18.671875-41.703124-41.699219 0-23.03125 18.671874-41.703125 41.703124-41.703125 23.027344 0 41.699219 18.671875 41.699219 41.703125-.027343 23.015625-18.683593 41.671875-41.699219 41.699219zm0 0" fill="url(#d)"/><path d="m183.132812 204.464844c-2.648437-1.988282-6.410156-1.449219-8.398437 1.199218l-15.289063 20.386719-15.289062-20.386719c-2.019531-2.617187-5.757812-3.144531-8.425781-1.191406-2.664063 1.957032-3.285157 5.679688-1.398438 8.394532l18.667969 25.183593v-.050781h-5.3125c-3.3125 0-6 2.6875-6 6s2.6875 6 6 6h5.3125v2h-5.3125c-3.3125 0-6 2.6875-6 6s2.6875 6 6 6h5.3125v2.261719c0 3.316406 2.6875 6 6 6s6-2.683594 6-6v-2.261719h6.199219c3.316406 0 6-2.6875 6-6s-2.683594-6-6-6h-6.199219v-2h6.199219c3.316406 0 6-2.6875 6-6s-2.683594-6-6-6h-6.199219v.050781l19.113281-25.183593c.984375-1.242188 1.4375-2.828126 1.253907-4.40625-.183594-1.574219-.988282-3.011719-2.234376-3.996094zm0 0" fill="url(#e)"/><path d="m476 0h-94.953125c-8.84375.0078125-16.015625 7.160156-16.046875 16v24.378906c-.003906 8.058594 6 14.855469 14 15.84375v21.824219c-12.363281 2.941406-21.0625 14.015625-21 26.722656v21.230469h-69.5c-3.886719.023438-7.605469 1.597656-10.328125 4.371094-2.722656 2.777344-4.226563 6.527344-4.171875 10.414062v185.527344c-.050781 3.878906 1.457031 7.617188 4.179688 10.375 2.726562 2.757812 6.441406 4.3125 10.320312 4.3125h113.6875c8.144531.023438 14.769531-6.542969 14.8125-14.6875v-95.148438l49.085938-40.679687c.160156-.128906.117187-.269531.257812-.414063 4.992188-5.132812 7.746094-12.035156 7.65625-19.191406v-114.878906h2c4.203125.082031 8.261719-1.527344 11.269531-4.464844 3.007813-2.933594 4.710938-6.957031 4.730469-11.15625v-24.378906c-.011719-8.832031-7.167969-15.9882812-16-16zm-73.8125 329h-113.6875c-.695312 0-1.363281-.285156-1.835938-.796875-.476562-.507813-.714843-1.195313-.664062-1.890625v-185.527344c-.054688-.707031.179688-1.402344.652344-1.929687.472656-.527344 1.140625-.835938 1.847656-.855469h111.183594c.429687 1.296875.648437 2.65625.648437 4.019531l-.144531 2.488281-21.066406 21.074219c-8.605469 8.605469-8.605469 22.5625 0 31.171875l3.78125 3.78125c1.125 1.125 2.652344 1.757813 4.246094 1.757813 1.359374 0 2.679687-.453125 3.75-1.292969l14.101562-11.140625v136.453125c-.039062 1.519531-1.292969 2.71875-2.8125 2.6875zm59.8125-158.121094c.085938 3.910156-1.347656 7.703125-4 10.578125l-41 34.125v-35.222656l25.265625-20.03125c2.558594-2.074219 2.972656-5.824219.921875-8.40625s-5.796875-3.027344-8.398438-1.003906l-47.175781 37.355469c-3.921875-3.921876-3.921875-10.28125 0-14.203126l22.683594-22.683593c1.039063-1.039063 1.664063-2.429688 1.746094-3.898438l.285156-4.949219c.007813-.113281.011719-.230468.011719-.34375-.023438-4.035156-.941406-8.011718-2.6875-11.648437-3.4375-7.238281-2.863282-15.742187 1.511718-22.449219.605469-1.003906.898438-2.160156.84375-3.328125v-10.691406c0-3.3125-2.6875-6-6-6-3.316406 0-6 2.6875-6 6v8.972656c-3.929687 6.964844-5.375 15.054688-4.109374 22.949219h-25.898438v-21.230469c-.039062-4.058593 1.542969-7.964843 4.394531-10.851562 2.851563-2.890625 6.738281-4.523438 10.796875-4.535157 1.574219-.007812 3.074219-.648437 4.167969-1.777343 1.09375-1.128907 1.683594-2.652344 1.640625-4.222657v-27.382812h71zm18-130.878906c0 2.210938-1.789062 4-4 4h-95c-2.210938 0-4-1.789062-4-4v-24c0-2.210938 1.789062-4 4-4h95c2.210938 0 4 1.789062 4 4zm0 0" fill="url(#f)"/><path d="m462.742188 12.617188c-6.109376-.121094-11.683594 3.46875-14.105469 9.078124-2.417969 5.609376-1.207031 12.125 3.070312 16.488282 4.277344 4.363281 10.769531 5.703125 16.425781 3.394531 5.65625-2.3125 9.355469-7.8125 9.355469-13.925781.070313-8.21875-6.527343-14.945313-14.746093-15.035156zm0 18.074218c-1.257813.128906-2.460938-.53125-3.03125-1.660156-.570313-1.125-.390626-2.488281.457031-3.425781.847656-.9375 2.183593-1.253907 3.363281-.800781 1.179688.453124 1.957031 1.585937 1.957031 2.847656.074219 1.597656-1.152343 2.953125-2.746093 3.039062zm0 0" fill="url(#g)"/><path d="m345.34375 187.257812c-27.464844 0-49.730469 22.265626-49.730469 49.730469 0 27.460938 22.265625 49.726563 49.726563 49.726563 27.464844 0 49.730468-22.265625 49.730468-49.726563-.03125-27.453125-22.277343-49.699219-49.726562-49.730469zm0 87.457032c-20.835938 0-37.730469-16.890625-37.730469-37.726563 0-20.835937 16.890625-37.730469 37.726563-37.730469 20.839844 0 37.730468 16.890626 37.730468 37.730469-.023437 20.824219-16.902343 37.703125-37.726562 37.726563zm0 0" fill="url(#h)"/><path d="m345.289062 220.992188h.105469c2.808594.027343 5.070313 2.3125 5.074219 5.121093 0 3.3125 2.6875 6 6 6 1.574219-.007812 3.078125-.648437 4.175781-1.777343 1.097657-1.128907 1.691407-2.648438 1.652344-4.222657.128906-7.230469-4.441406-13.714843-11.296875-16.023437v-1.726563c0-3.3125-2.6875-6-6-6s-6 2.6875-6 6v1.726563c-6.511719 2.6875-10.816406 8.980468-10.957031 16.023437.050781 9.472657 7.742187 17.121094 17.214843 17.125 2.839844.003907 5.144532 2.292969 5.167969 5.128907.027344 1.84375-.941406 3.558593-2.535156 4.488281-1.589844.929687-3.558594.929687-5.152344 0-1.589843-.929688-2.558593-2.644531-2.535156-4.488281 0-3.3125-2.683594-6-6-6-3.347656-.011719-6.085937 2.65625-6.167969 6 .144532 7.046874 4.449219 13.335937 10.964844 16.023437v1.21875c0 3.3125 2.6875 6 6 6s6-2.6875 6-6v-1.21875c6.855469-2.308594 11.425781-8.789063 11.300781-16.023437.011719-4.53125-1.773437-8.882813-4.972656-12.09375-3.195313-3.214844-7.539063-5.023438-12.070313-5.035157-1.351562-.003906-2.652343-.546875-3.605468-1.507812-.953125-.960938-1.484375-2.261719-1.476563-3.617188.023438-2.816406 2.296875-5.09375 5.113281-5.121093zm0 0" fill="url(#i)"/><path d="m326 442.300781c-3.3125 0-6 2.683594-6 6v37.003907c0 3.316406 2.6875 6 6 6s6-2.683594 6-6v-37.003907c0-3.316406-2.6875-6-6-6zm0 0" fill="url(#j)"/><path d="m326 407.089844c-3.3125 0-6 2.683594-6 6v10.097656c0 3.3125 2.6875 6 6 6s6-2.6875 6-6v-10.097656c0-3.316406-2.6875-6-6-6zm0 0" fill="url(#j)"/><path d="m376 432.300781c-3.3125 0-6 2.683594-6 6v27.003907c0 3.316406 2.6875 6 6 6s6-2.683594 6-6v-27.003907c0-3.316406-2.6875-6-6-6zm0 0" fill="url(#k)"/><path d="m376 387.089844c-3.3125 0-6 2.683594-6 6v20.097656c0 3.3125 2.6875 6 6 6s6-2.6875 6-6v-20.097656c0-3.316406-2.6875-6-6-6zm0 0" fill="url(#k)"/><path d="m276 440.300781c-3.3125 0-6 2.683594-6 6v19.003907c0 3.316406 2.6875 6 6 6s6-2.683594 6-6v-19.003907c0-3.316406-2.6875-6-6-6zm0 0" fill="url(#l)"/><path d="m276 387.089844c-3.3125 0-6 2.683594-6 6v32.097656c0 3.3125 2.6875 6 6 6s6-2.6875 6-6v-32.097656c0-3.316406-2.6875-6-6-6zm0 0" fill="url(#l)"/><path d="m157 55.488281c3.3125 0 6-2.6875 6-6v-37.007812c0-3.3125-2.6875-6-6-6s-6 2.6875-6 6v37.007812c0 3.3125 2.6875 6 6 6zm0 0" fill="url(#m)"/><path d="m157 90.699219c3.3125 0 6-2.683594 6-6v-10.097657c0-3.316406-2.6875-6-6-6s-6 2.683594-6 6v10.097657c0 3.316406 2.6875 6 6 6zm0 0" fill="url(#m)"/><path d="m107 65.488281c3.3125 0 6-2.6875 6-6v-27.007812c0-3.3125-2.6875-6-6-6s-6 2.6875-6 6v27.007812c0 3.3125 2.6875 6 6 6zm0 0" fill="url(#n)"/><path d="m107 110.699219c3.3125 0 6-2.683594 6-6v-20.097657c0-3.316406-2.6875-6-6-6s-6 2.683594-6 6v20.097657c0 3.316406 2.6875 6 6 6zm0 0" fill="url(#n)"/><g fill="url(#o)"><path d="m207 57.488281c3.3125 0 6-2.6875 6-6v-19.007812c0-3.3125-2.6875-6-6-6s-6 2.6875-6 6v19.007812c0 3.3125 2.6875 6 6 6zm0 0"/><path d="m207 110.699219c3.3125 0 6-2.683594 6-6v-32.097657c0-3.316406-2.6875-6-6-6s-6 2.683594-6 6v32.097657c0 3.316406 2.6875 6 6 6zm0 0"/></g></svg>