<svg xmlns="http://www.w3.org/2000/svg" xmlns:xlink="http://www.w3.org/1999/xlink" version="1.1" id="Layer_1" x="0px" y="0px" width="2660px" height="2000px" viewBox="0 0 2660 2000" enable-background="new 0 0 2660 2000" xml:space="preserve">
<path xmlns="http://www.w3.org/2000/svg" fill="#FFCE88" d="M660.92,1315.679l-16.381-9.289c-4.528,7.213-10.038,13.683-15.388,18.56  c-4.465,4.068-11.322,3.971-15.673-0.222l-0.524-0.506c-4.794-4.619-4.683-12.365,0.299-16.781  c5.075-4.501,10.001-10.129,13.828-16.876c5.572-9.828,5.593-18.705-1.304-22.614c-6.551-3.717-13.819-0.544-25.366,9.77  c-16.669,14.93-32.428,22.627-49.153,13.143c-15.173-8.604-21.009-26.041-14.167-46.543l-16.38-9.288l9.582-16.899l15.173,8.605  c3.836-6.111,7.598-10.787,11.192-14.446c4.392-4.47,11.581-4.528,16.093-0.179c4.665,4.497,4.687,11.972,0.026,16.475  c-3.493,3.375-7.286,7.844-10.737,13.93c-6.356,11.207-3.581,17.564,1.247,20.303c5.69,3.227,12.733-0.754,26.562-12.282  c18.877-16.411,33.054-19.31,48.571-10.51c15.347,8.702,22.291,26.996,14.494,48.78l17.588,9.974L660.92,1315.679z"/>
<path xmlns="http://www.w3.org/2000/svg" fill="#2993F2" d="M1448.827,1578.616c41.305-55.591,74.479-56.075,74.479-56.075s15.057-97.667,3.044-139.215  c-12.011-41.549-66.329-5.112-66.329-5.112s72.016-141.166,42.478-157.023c-55.019-29.536-141.685,120.201-141.685,120.201  s20.299-65.909-18.609-65.664c-58.676,0.368-63.751,151.486-63.751,151.486s-11.569-29.773-47.77-12.717  c-38.994,18.373-49.556,129.012-51.771,214.51h205.548C1413.867,1610.997,1437.889,1593.338,1448.827,1578.616"/>
<path xmlns="http://www.w3.org/2000/svg" fill="#0E538B" d="M1368.004,1329.354c0,0,2.415-75.104-36.493-74.859c-58.676,0.369-53.057,172.719-53.057,172.719  s-24.51-48.764-60.711-31.707c-39.732,18.721-44.45,141.007-42.894,233.5h68.281l259.368-407.816  C1447.479,1191.654,1368.004,1329.354,1368.004,1329.354"/>
<path xmlns="http://www.w3.org/2000/svg" fill="#2993F2" d="M1687.503,1624.125c0,0,187.312,21.567,232.684,5.675c45.372-15.892,15.326-41.302,15.326-41.302  s95.956-12.256,105.214-40.815c9.256-28.559-36.146-28.742-36.146-28.742s96.317-53.143,85.506-73.75  c-20.142-38.384-128.217,13.987-128.217,13.987s37.31-29.995,14.846-44.99c-33.877-22.614-95.582,62.291-95.582,62.291  s4.931-21.617-22.517-25.894C1809.37,1442.912,1687.503,1624.125,1687.503,1624.125"/>
<path xmlns="http://www.w3.org/2000/svg" fill="#0E538B" d="M1858.565,1434.632c27.447,4.277,22.568,41.848,22.568,41.848s63.817-101.272,97.694-78.659  c22.464,14.996-8.142,57.234-8.142,57.234s99.26-48.248,119.399-9.864l-384.649,166.927  C1719.56,1590.888,1812.565,1427.466,1858.565,1434.632"/>
<path xmlns="http://www.w3.org/2000/svg" fill="#2993F2" d="M1686.343,1626.852c0,0,170.446-118.594,194.968-170.73c24.521-52.138-22.438-47.793-22.438-47.793  s70.114-92.328,53.475-124.229c-16.641-31.901-54.931,6.761-54.931,6.761s35.465-126.979,8.766-135.043  c-49.731-15.021-98.382,145.777-98.382,145.777s-18.575-88.96-50.262-82.351c-47.786,9.969-0.105,141.49-0.105,141.49  s-14.098-42.842-40.807-22.969C1628.705,1373.423,1686.343,1626.852,1686.343,1626.852"/>
<path xmlns="http://www.w3.org/2000/svg" fill="#0E538B" d="M1630.001,1339.817c30.095-14.235,36.141-44.188,36.141-44.188s0.203-74.368,47.99-84.337  c31.687-6.61,53.87,53.137,53.87,53.137s48.449-123.632,98.181-108.612l-180.356,469.046  C1679.538,1594.958,1594.155,1356.775,1630.001,1339.817"/>
<path xmlns="http://www.w3.org/2000/svg" fill="#D3D3D3" d="M1633.789,1627.219H1290.08c-10.961,0-19.847-8.885-19.847-19.846s8.886-19.847,19.847-19.847h343.709  c10.961,0,19.847,8.886,19.847,19.847S1644.75,1627.219,1633.789,1627.219"/>
<path xmlns="http://www.w3.org/2000/svg" fill="#AAAAAA" d="M1693.905,1588.705h-343.71c-10.961,0-19.847-8.886-19.847-19.846s8.886-19.846,19.847-19.846h343.71  c10.96,0,19.846,8.886,19.846,19.846S1704.865,1588.705,1693.905,1588.705"/>
<path xmlns="http://www.w3.org/2000/svg" fill="#D3D3D3" d="M1645.813,1552.219h-343.709c-10.961,0-19.847-8.886-19.847-19.846s8.886-19.847,19.847-19.847h343.709  c10.96,0,19.847,8.887,19.847,19.847S1656.772,1552.219,1645.813,1552.219"/>
<path xmlns="http://www.w3.org/2000/svg" fill="#AAAAAA" d="M1605.735,1512.692h-343.709c-10.961,0-19.847-8.886-19.847-19.846c0-10.961,8.886-19.847,19.847-19.847  h343.709c10.961,0,19.847,8.886,19.847,19.847C1625.582,1503.807,1616.696,1512.692,1605.735,1512.692"/>
<path xmlns="http://www.w3.org/2000/svg" fill="#FFCE88" d="M1849.204,1466.911c0,94.91-76.939,171.85-171.851,171.85c-94.909,0-171.849-76.939-171.849-171.85  s76.939-171.85,171.849-171.85C1772.265,1295.062,1849.204,1372.001,1849.204,1466.911"/>
<path xmlns="http://www.w3.org/2000/svg" fill="#ffbf66" d="M1821.56,1466.911c0,79.643-64.563,144.205-144.205,144.205c-79.643,0-144.205-64.563-144.205-144.205  c0-79.642,64.563-144.205,144.205-144.205C1756.996,1322.706,1821.56,1387.27,1821.56,1466.911"/>
<path xmlns="http://www.w3.org/2000/svg" fill="#FFFFFF" d="M1632.708,1559.503l8.207-22.633c-10.062-4.165-19.394-9.727-26.683-15.428  c-6.084-4.758-7.427-13.422-3.072-19.802l0.524-0.769c4.798-7.031,14.587-8.547,21.217-3.212  c6.758,5.436,14.905,10.441,24.228,13.821c13.579,4.924,24.772,3.051,28.227-6.478c3.282-9.053-2.269-17.535-17.739-29.884  c-22.381-17.817-35.453-36.035-27.074-59.145c7.602-20.964,28.332-32.047,55.636-27.808l8.206-22.632l23.347,8.465l-7.601,20.965  c8.522,3.528,15.221,7.27,20.601,11.017c6.574,4.581,8.185,13.631,3.666,20.247c-4.671,6.842-14.087,8.467-20.759,3.556  c-5.002-3.681-11.444-7.507-19.854-10.556c-15.485-5.614-22.905-0.758-25.323,5.912c-2.851,7.862,3.673,15.888,21.159,30.854  c24.722,20.285,31.406,37.534,23.632,58.975c-7.689,21.203-29.261,33.867-58.386,28.698l-8.811,24.301L1632.708,1559.503z"/>
<path xmlns="http://www.w3.org/2000/svg" fill="#0E538B" d="M1057.586,1620.237c0,0-267.05-131.674-312.976-200.35c-45.926-68.677,21.585-72.568,21.585-72.568  s-119.172-115.902-102.406-164.695c16.767-48.793,79.333-2.169,79.333-2.169s-77.46-172.451-41.329-189.599  c67.298-31.939,161.706,151.591,161.706,151.591s-20.289-79.728,26.054-77.138c69.887,3.907,67,184.26,67,184.26  s7.893-69.151,50.017-46.689C1082.148,1243.183,1057.586,1620.237,1057.586,1620.237"/>
<path xmlns="http://www.w3.org/2000/svg" fill="#2993F2" d="M1021.776,1174.984c-32.894-18.253-65.654,35.097-65.654,35.097s3.318-140.863-66.57-144.771  c-46.342-2.59-26.053,77.138-26.053,77.138s-94.409-183.53-161.706-151.591l356.1,626.45  C1060.409,1573.56,1086.938,1211.143,1021.776,1174.984"/>
<path xmlns="http://www.w3.org/2000/svg" fill="#0E538B" d="M1050.685,1621.869c0,0-218.411,27.126-274.963,2.952c-56.551-24.174-16.023-54.033-16.023-54.033  s-121.429-23.867-130.798-61.114c-9.368-37.247,48.601-33.589,48.601-33.589s-118.388-76.089-102.82-101.466  c28.998-47.268,162.46,28.845,162.46,28.845s-45.052-41.485-15.094-58.7c45.18-25.962,116.663,87.703,116.663,87.703  s-4.441-28.016,30.96-31.121C933.188,1395.772,1050.685,1621.869,1050.685,1621.869"/>
<path xmlns="http://www.w3.org/2000/svg" fill="#2993F2" d="M871.104,1380.988c-35.401,3.105-32.394,51.479-32.394,51.479s-72.776-134.735-117.956-108.774  c-29.958,17.215,5.487,73.753,5.487,73.753s-122.562-70.094-151.56-22.826l476.666,246.04  C1035.141,1592.35,930.435,1375.782,871.104,1380.988"/>
<path xmlns="http://www.w3.org/2000/svg" fill="#0E538B" d="M596.274,1633.089L596.274,1633.089c0,3.391,2.749,6.141,6.14,6.141H2133.15c3.391,0,6.14-2.75,6.14-6.141  s-2.749-6.14-6.14-6.14H602.415C599.023,1626.949,596.274,1629.698,596.274,1633.089"/>
<polygon xmlns="http://www.w3.org/2000/svg" fill="#2993F2" points="1667.673,565.156 1659.887,584.566 1627.272,575.487 1612.386,602.462 1586.868,599.658   1585.449,612.575 1619.579,616.326 1633.685,590.762 1667.613,600.207 1679.331,570.999 "/>
<path xmlns="http://www.w3.org/2000/svg" fill="#D3D3D3" d="M1783.671,1085.104l8.016-19.894c-8.825-4.024-16.96-9.27-23.271-14.573  c-5.268-4.428-6.191-12.184-2.114-17.728l0.491-0.668c4.492-6.108,13.254-7.151,18.991-2.193  c5.847,5.052,12.942,9.764,21.138,13.066c11.935,4.809,21.959,3.493,25.334-4.883c3.207-7.956-1.471-15.683-14.855-27.162  c-19.37-16.567-30.436-33.197-22.25-53.509c7.426-18.427,26.23-27.644,50.407-23.013l8.017-19.894l20.521,8.271l-7.426,18.427  c7.478,3.409,13.324,6.95,17.996,10.457c5.709,4.284,6.859,12.391,2.629,18.14c-4.373,5.945-12.81,7.097-18.595,2.515  c-4.338-3.436-9.953-7.044-17.345-10.022c-13.61-5.484-20.37-1.393-22.732,4.47c-2.785,6.91,2.771,14.26,17.871,28.134  c21.374,18.836,26.782,34.404,19.189,53.249c-7.51,18.638-27.116,29.236-52.883,23.72l-8.608,21.359L1783.671,1085.104z"/>
<path xmlns="http://www.w3.org/2000/svg" fill="#FFCE88" d="M1343.202,1626.991H939.488c-16.084,0-29.123-13.039-29.123-29.123s13.039-29.123,29.123-29.123h403.714  c16.084,0,29.123,13.039,29.123,29.123S1359.286,1626.991,1343.202,1626.991"/>
<path xmlns="http://www.w3.org/2000/svg" fill="#ffbf66" d="M1403.882,1569.339h-380.056c-16.084,0-29.122-13.039-29.122-29.123s13.038-29.122,29.122-29.122h380.056  c16.084,0,29.123,13.038,29.123,29.122S1419.966,1569.339,1403.882,1569.339"/>
<path xmlns="http://www.w3.org/2000/svg" fill="#FFCE88" d="M1349.739,1511.071H986.188c-15.718,0-28.46-12.741-28.46-28.459v-1.347c0-15.717,12.742-28.46,28.46-28.46  h363.552c15.719,0,28.46,12.743,28.46,28.46v1.347C1378.199,1498.33,1365.458,1511.071,1349.739,1511.071"/>
<path xmlns="http://www.w3.org/2000/svg" fill="#ffbf66" d="M1349.378,1452.966H984.125c-15.448,0-27.97-12.521-27.97-27.969v-2.307c0-15.447,12.522-27.97,27.97-27.97  h365.253c15.447,0,27.971,12.522,27.971,27.97v2.307C1377.349,1440.445,1364.825,1452.966,1349.378,1452.966"/>
<path xmlns="http://www.w3.org/2000/svg" fill="#FFCE88" d="M1361.408,1398.146H992.807c-16.085,0-29.123-13.039-29.123-29.123s13.038-29.123,29.123-29.123h368.601  c16.085,0,29.123,13.039,29.123,29.123S1377.493,1398.146,1361.408,1398.146"/>
<path xmlns="http://www.w3.org/2000/svg" fill="#ffbf66" d="M1345.5,1340.635H976.898c-16.084,0-29.123-13.039-29.123-29.123c0-16.085,13.039-29.122,29.123-29.122  H1345.5c16.084,0,29.123,13.037,29.123,29.122C1374.623,1327.596,1361.584,1340.635,1345.5,1340.635"/>
<path xmlns="http://www.w3.org/2000/svg" fill="#ffbf66" d="M1363.966,1228.113h-353.067c-15.766,0-28.548-12.781-28.548-28.548v-1.15  c0-15.766,12.782-28.547,28.548-28.547h353.067c15.768,0,28.549,12.781,28.549,28.547v1.15  C1392.515,1215.332,1379.733,1228.113,1363.966,1228.113"/>
<path xmlns="http://www.w3.org/2000/svg" fill="#FFCE88" d="M1395.601,1284.116H1056.41c-15.477,0-28.024-12.548-28.024-28.024v-2.198  c0-15.477,12.547-28.023,28.024-28.023h339.191c15.477,0,28.022,12.547,28.022,28.023v2.198  C1423.623,1271.568,1411.077,1284.116,1395.601,1284.116"/>
<path xmlns="http://www.w3.org/2000/svg" fill="#FFCE88" d="M1003.101,1338.656c69.422,64.025,73.797,172.206,9.771,241.629  c-64.025,69.423-172.207,73.797-241.628,9.771c-69.422-64.025-73.797-172.206-9.772-241.628  C825.498,1279.005,933.679,1274.63,1003.101,1338.656"/>
<path xmlns="http://www.w3.org/2000/svg" fill="#ffbf66" d="M984.452,1358.877c58.254,53.727,61.925,144.505,8.199,202.759c-53.726,58.255-144.504,61.927-202.759,8.199  c-58.254-53.726-61.925-144.504-8.199-202.759C835.419,1308.821,926.197,1305.151,984.452,1358.877"/>
<path xmlns="http://www.w3.org/2000/svg" fill="#FFFFFF" d="M981.278,1509.169c3.3,4.334,3.07,10.396-0.551,14.467c-7.105,7.982-18.72,17.638-33.313,24.803  c-21.345,10.479-45.864,13.684-69.011,5.781c-14.464-4.939-28.249-15.031-38.624-28.802l-12.612,6.192  c-4.287,2.104-9.469,0.336-11.573-3.951l-0.16-0.326c-2.104-4.287-0.335-9.468,3.951-11.572l10.351-5.081  c-2.072-3.399-3.506-5.503-4.459-7.444c-1.587-3.234-3.17-7.273-4.587-11.798l-10.673,5.239c-4.287,2.105-9.468,0.336-11.572-3.951  c-2.105-4.286-0.336-9.467,3.951-11.572l12.938-6.352c-3.747-16.624-3.14-33.378,1.797-47.846  c8.398-24.592,26.903-43.311,49.22-54.267c13.01-6.388,23.97-8.97,32.947-9.942c6.241-0.677,11.898,3.705,12.801,9.918l0.028,0.195  c0.936,6.44-3.586,12.352-10.033,13.241c-7.331,1.013-15.883,3.329-25.586,8.093c-14.231,6.986-26.239,18.501-32.159,35.055  c-3.295,9.646-4.183,20.92-0.877,31.739l72.775-35.728c4.286-2.105,9.468-0.336,11.572,3.951c2.105,4.286,0.335,9.468-3.951,11.572  l-76.008,37.315c1.421,3.718,2.845,7.435,3.958,9.699c1.428,2.911,2.857,5.82,5.086,9.544l76.169-37.396  c4.377-2.148,9.667-0.343,11.816,4.033c2.149,4.378,0.343,9.668-4.034,11.816l-72.935,35.807  c6.869,8.268,15.365,14.13,24.047,17.095c17.2,5.602,32.361,3.779,48.532-4.159c9.859-4.84,17.856-10.94,23.824-16.675  C969.234,1503.146,977.153,1503.75,981.278,1509.169"/>
<path xmlns="http://www.w3.org/2000/svg" fill="#D3D3D3" d="M981.26,1005.483c2.271,3.676,1.622,8.445-1.551,11.379c-6.224,5.755-16.137,12.482-28.21,17.014  c-17.66,6.629-37.263,7.269-54.928-0.755c-11.04-5.014-21.144-14.044-28.273-25.715l-10.434,3.917  c-3.547,1.33-7.501-0.465-8.832-4.012l-0.101-0.27c-1.331-3.547,0.465-7.5,4.011-8.832l8.563-3.214  c-1.374-2.843-2.344-4.615-2.946-6.221c-1.004-2.675-1.943-5.986-2.712-9.667l-8.83,3.314c-3.547,1.332-7.501-0.465-8.832-4.011  c-1.331-3.547,0.465-7.501,4.012-8.832l10.703-4.017c-1.678-13.413,0.092-26.594,5.106-37.634  c8.525-18.769,24.577-32.12,43.04-39.049c10.763-4.04,19.615-5.234,26.777-5.31c4.979-0.053,9.108,3.842,9.341,8.816l0.008,0.157  c0.242,5.156-3.784,9.475-8.942,9.68c-5.866,0.234-12.795,1.405-20.823,4.417c-11.773,4.419-22.141,12.584-28.09,25.197  c-3.345,7.36-4.914,16.192-3.139,24.989l60.207-22.597c3.547-1.331,7.501,0.464,8.832,4.011c1.331,3.546-0.465,7.501-4.011,8.832  l-62.883,23.601c0.836,3.044,1.674,6.088,2.377,7.962c0.904,2.408,1.808,4.816,3.28,7.927l63.016-23.652  c3.621-1.359,7.659,0.474,9.018,4.095c1.358,3.622-0.475,7.659-4.096,9.018l-60.34,22.647c4.786,7.056,11.042,12.339,17.667,15.348  c13.148,5.749,25.257,5.479,38.636,0.457c8.155-3.061,14.94-7.261,20.093-11.327C972.216,999.8,978.42,1000.888,981.26,1005.483"/>
<path xmlns="http://www.w3.org/2000/svg" fill="#ffbf66" d="M1540.052,804.254l19.211-9.725l18.902,10.313c2.153,1.174,4.719-0.63,4.341-3.053l-3.313-21.276  l15.649-14.79c1.782-1.685,0.858-4.682-1.563-5.072l-21.258-3.424l-9.23-19.454c-1.052-2.216-4.188-2.264-5.307-0.082l-9.827,19.16  l-21.353,2.767c-2.432,0.315-3.447,3.283-1.718,5.022l15.186,15.265l-3.967,21.164  C1535.354,803.48,1537.863,805.361,1540.052,804.254"/>
<polygon xmlns="http://www.w3.org/2000/svg" fill="#ffbf66" points="1154.477,413.787 1134.623,415.802 1127.852,384.215 1098.458,383.581 1089.526,360.771   1077.979,365.292 1089.926,395.8 1117.78,396.401 1124.824,429.261 1154.701,426.228 "/>
<path xmlns="http://www.w3.org/2000/svg" fill="#FFCE88" d="M1562.433,887.128l21.242,7.006c0,0,33.678-10.913,36.994-17.777c3.317-6.863,4.254-23.519,9.045-23.973  s14.053,1.104,16.258,12.503c1.602,8.274-10.517,32.188-8.623,34.733c1.185,1.593,13.277,5.969,22.164,9.023  c5.844,2.007,10.061,7.15,10.957,13.354l0.003,0.018c0.605,4.193-1.77,8.278-5.694,9.794l-6.11,2.36l1.95,6.31  c1.45,4.697-1.122,9.746-5.762,11.301l-4.727,1.585l1.511,3.844c1.946,4.949-0.796,10.565-5.88,12.044l-4.131,1.2l0.17,1.104  c0.709,4.593-2.168,9.013-6.625,10.181l-4.104,1.076l-56.569-18.67c-5.3-1.749-10.179-4.582-14.34-8.327l-18.789-9.915  c-2.018-1.065-2.947-3.478-2.185-5.673l17.417-50.156C1557.446,887.651,1560.041,886.339,1562.433,887.128"/>
<path xmlns="http://www.w3.org/2000/svg" fill="#ffbf66" d="M881.409,818.674c-0.274-0.782-6.927-12.159-15.516-24.515c-39.946-57.55-99.18-113.018-168.645-110.935  l-0.049-0.423c31.406-3.445,62.178,4.919,89.192,19.826c44.564,24.024,87.986,69.803,111.742,104.993L881.409,818.674z"/>
<path xmlns="http://www.w3.org/2000/svg" fill="#F7A491" d="M1338.231,746.866c0,0,2.04-4.118,1.916-13.63c-0.152-11.764-2.51-29.525-2.98-31.095  c-0.852-2.839,37.199-14.766,37.199-14.766s61.054-3.124,70.14-9.939c9.087-6.815,16.733-9.621,12.495-2.555  c-7.668,12.778-25.558,31.52-29.533,34.076c-3.976,2.555-51.398,14.482-52.25,14.482s-0.568,29.816-0.568,29.816L1338.231,746.866z"/>
<path xmlns="http://www.w3.org/2000/svg" fill="#D3D3D3" d="M1377.845,734.158c0,0-39.531-6.719-40.252-2.769c-15.974,87.462-18.681,116.371-20.446,117.278  c-6.017,3.094-92.058-72.417-106.276-77.359c-6.801-2.364-14.202-1.97-21.296-1.761c-16.913,0.499-11.209,0.094-20.126,0.533  l0.011,0.019c-0.484,0.032-0.756,0.052-0.756,0.052l0.091,15.908c19.057,17.146,62.682,276.846,66.355,276.674  c4.105-0.192,90.332,21.508,88.812,14.243c-0.247-1.181-58.458-48.815-74.967-117.563c-5.542-23.078-8.278-47.929-11.282-69.678  c19.157,9.607,93.984,46.431,105.843,41.566C1380.446,916.166,1377.845,734.158,1377.845,734.158"/>
<path xmlns="http://www.w3.org/2000/svg" fill="#F7A491" d="M1526.337,1195.27c0,0,80.225,62.841,82.899,73.98c3.856,16.049,77.318-5.048,59.603-8.313  c-4.076-0.751-17.119-4.062-18.192-4.633c-5.735-3.066-77.119-89.087-77.119-89.087L1526.337,1195.27z"/>
<path xmlns="http://www.w3.org/2000/svg" fill="#1E0F00" d="M1703.287,1260.937l-51.22-4.172c0,0-14.641,12.119-42.779,12.686c0,0-4.498,12.852-2.359,27.877  c0.369,2.594,0.803,10.426,3.416,10.248c9.464-0.643,34.677-6.916,63.404-12.661c0,0,38.609-8.177,60.908-21.518  C1756.955,1260.057,1703.287,1260.937,1703.287,1260.937"/>
<path xmlns="http://www.w3.org/2000/svg" fill="#AEE0FF" d="M1166.879,1037.636c0,0,58.747,9.873,123.721-5.327c75.182-17.589,158.314-33.85,182.672-19.688  c19.605,11.398,142.039,196.4,142.039,196.4l-47.28,34.502l-134.809-150.955c0,0-171.993,63.459-210.621,56.427  C1134.625,1132.978,1133.375,1062.718,1166.879,1037.636"/>
<polygon xmlns="http://www.w3.org/2000/svg" fill="#AEE0FF" points="1231.105,1000.306 1289.886,1070.161 1180.843,1103.385 1166.879,1037.636 "/>
<path xmlns="http://www.w3.org/2000/svg" fill="#F7A491" d="M1350.563,1319.388c0,0-3.574,97.028-5.789,113.461c-2.205,16.355,41.176,65.635,35.633,48.494  c-1.275-3.943-4.562-16.993-4.566-18.209c-0.027-6.504,16.088-117.191,16.088-117.191L1350.563,1319.388z"/>
<path xmlns="http://www.w3.org/2000/svg" fill="#1E0F00" d="M1396.774,1511.654l-20.665-47.052c0,0-17.618-7.125-31.487-31.614c0,0-13.445,2.148-25.651,11.169  c-2.106,1.556-16.455,12.049-15.455,14.469c3.68,8.91,23.218,27.997,44.582,48.843c0,0,30.282,24.426,52.616,37.709  C1423.047,1558.46,1396.774,1511.654,1396.774,1511.654"/>
<path xmlns="http://www.w3.org/2000/svg" fill="#CCE9FF" d="M1445.784,1128.09c-20.546-27.395-186.34-53.411-186.34-53.411l-46.229-88.856l-102.227,63.042  c0,0,10.218,81.345,17.889,103.079c10.223,28.964,78.924,30.44,120.885,30.009c38.607-0.396,109.126,7.475,109.126,7.475  l-23.852,210.419c0,0,46.884,10.67,60.059,8.945C1396.585,1408.596,1471.341,1162.166,1445.784,1128.09"/>
<path xmlns="http://www.w3.org/2000/svg" fill="#FFFFFF" d="M1169.271,770.293l-57.678,3.161c0,0-1.319,0.465-1.721,0.539c-4.699,0.87-0.431,168.948,3.76,231.725  c4.192,62.776,12.689,89.148,12.689,89.148s78.224-13.889,102.228-23.207c9.963-3.866,34.076-34.013,34.076-34.013  s-24.634-33.118-37.042-86.914c-9.571-41.49-21.374-115.039-28.128-130.391C1181.942,785.084,1169.271,770.293,1169.271,770.293"/>
<path xmlns="http://www.w3.org/2000/svg" fill="#F7A491" d="M1113.238,722.59l-1.638,50.924c0,0,37.335,64.331,56.504,55.367c16.085-7.523,1.807-56.458,1.807-56.458  s-2.785-11.221-6.648-24.111c-2.699-9.007-4.943-18.764-4.777-25.924C1158.889,704.985,1113.238,722.59,1113.238,722.59"/>
<path xmlns="http://www.w3.org/2000/svg" fill="#1E0F00" d="M1157.842,606.444c0,0,19.026,28.681,20.446,52.818c1.42,24.137-3.692,40.606-3.692,40.606l-61.052-72.979  L1157.842,606.444z"/>
<path xmlns="http://www.w3.org/2000/svg" fill="#F48C7F" d="M1184.609,654.323c0.86,8.452-2.424,15.709-7.337,16.21c-4.913,0.501-9.592-5.943-10.452-14.395  s2.424-15.709,7.336-16.211C1179.069,639.426,1183.749,645.871,1184.609,654.323"/>
<path xmlns="http://www.w3.org/2000/svg" fill="#F7A491" d="M1093.789,638.582c-1.398-0.298-1.263,69.96,19.101,86.494c20.365,16.534,55.809,17.985,66.159,1.331  c11.448-18.42,0.558-92.452-29.73-108.176C1119.031,602.508,1093.789,638.582,1093.789,638.582"/>
<path xmlns="http://www.w3.org/2000/svg" fill="#1E0F00" d="M1088.625,595.015c-15.547,13.631-23.073,23.588-33.592,47.821c-12.934,29.798,12.727,60.67,34.244,72.938  c21.518,12.269,23.343,27.329,23.343,27.329l0.853-9.371c0.922-7.277-1.279-11.43-3.337-15.831  c-1.832-3.915-7.715-17.331-10.01-20.872c-6.054-9.338-7.248-11.36-4.26-20.233c2.301-6.832-0.363-21.892,3.195-33.153l28.964-6.247  c0,0,18.125-4.357,27.278-14.916C1181.584,592.161,1129.625,558.353,1088.625,595.015"/>
<path xmlns="http://www.w3.org/2000/svg" fill="#F7A491" d="M1102.756,684.485c3.567,7.71,2.826,15.642-1.655,17.717c-4.481,2.074-11.005-2.494-14.573-10.204  c-3.567-7.71-2.826-15.642,1.655-17.717C1092.664,672.207,1099.189,676.776,1102.756,684.485"/>
<path xmlns="http://www.w3.org/2000/svg" fill="#ffbf66" d="M712.66,709.661l-4.699-32.366l23.999-22.22c2.733-2.531,1.378-7.097-2.293-7.727l-32.235-5.533  l-13.715-29.69c-1.563-3.382-6.325-3.504-8.058-0.207l-15.223,28.947l-32.476,3.87c-3.698,0.441-5.286,4.931-2.687,7.599  l22.826,23.423l-6.355,32.082c-0.724,3.654,3.057,6.552,6.398,4.904l29.33-14.471l28.547,15.958  C709.271,716.048,713.195,713.348,712.66,709.661"/>
<path xmlns="http://www.w3.org/2000/svg" fill="#F8A492" d="M905.392,490.673c3.292,13.524,9.228,34.899,9.228,34.899c-0.47,5.875-2.206,30.33-4.27,60.302  l44.054-17.631c0,0-0.528-48.837,1.438-51.825c1.662-2.528,4.455,0.627,17.958-18.697c3.898-5.578,4.628-15.544,4.628-15.544  s0.803-12.266-1.952-13.407c-2.754-1.144-5.914,0.689-6.911,2.808c-0.998,2.12-0.74,7.056-1.738,9.176  c-0.997,2.12-7.37,4.674-10.053,4.541c-2.683-0.131,0.335-36.284,0.335-36.284s1.498-10.251,2.258-13.606  c0.648-2.86,3.251-11.246,3.251-11.246s3.057-12.167-0.722-13.096c-2.227-0.548-7.902,9.338-11.792,19.828  c-4.189,11.299-6.564,23.281-7.762,23.119c-2.813-0.378-1.323-20.199-1.323-20.199s2.804-9.08,2.733-13.365  c2.647-5.249,4.403-14.989-0.257-15.795c-0.86-0.148-7.003,12.224-7.003,12.224s-2.414,8.711-3.822,12.781  c-2.482,7.181-2.857,18.52-4.152,23.52c-1.078,4.159-2.051,2.45-2.495,2.624c-0.343,0.135,0.258-5.602,0.945-13.488  c0.346-3.972-0.111-8.553,1.001-13.077c1.028-4.188,1.618-10.184,1.885-13.805c0.755-10.253-5.7-9.203-7.931,0.17  c-0.851,3.572-1.745,7.468-2.636,11.419c-3.467,15.369-3.369,30.175-5.026,30.299c-2.151,0.16-0.735-26.799-0.735-26.799  s-3.302-14.922-6.581-1.073c-3.804,16.07-3.407,29.173-3.356,29.751C904.936,463.121,902.1,477.149,905.392,490.673"/>
<path xmlns="http://www.w3.org/2000/svg" fill="#D3D3D3" d="M1111.52,773.541c0,0-57.102-2.69-71.855-9.364c-8.944-4.047-82.418-63.251-82.418-63.251l0.824-158.516  l-51.673-3.93c0,0-26.793,175.211-17.513,194.391c9.584,19.806,117.133,101.342,138.641,136.723  c12.392,20.384,38.233,297.6,42.144,300.097c27.829,14.482,113.765,28.946,111.74,20.162  C1125.469,947.062,1111.52,773.541,1111.52,773.541"/>
<path xmlns="http://www.w3.org/2000/svg" fill="#FFCE88" d="M1538.693,532.806c0,94.91-76.939,171.85-171.849,171.85c-94.91,0-171.851-76.94-171.851-171.85  s76.94-171.85,171.851-171.85C1461.754,360.956,1538.693,437.896,1538.693,532.806"/>
<path xmlns="http://www.w3.org/2000/svg" fill="#ffbf66" d="M1511.049,532.806c0,79.642-64.563,144.205-144.204,144.205c-79.643,0-144.206-64.563-144.206-144.205  s64.563-144.205,144.206-144.205C1446.485,388.601,1511.049,453.164,1511.049,532.806"/>
<path xmlns="http://www.w3.org/2000/svg" fill="#FFFFFF" d="M1322.198,625.397l8.206-22.633c-10.059-4.165-19.392-9.727-26.682-15.428  c-6.084-4.757-7.426-13.421-3.073-19.802l0.526-0.769c4.797-7.03,14.585-8.546,21.216-3.211  c6.758,5.436,14.905,10.441,24.227,13.822c13.58,4.923,24.772,3.05,28.226-6.479c3.284-9.052-2.268-17.534-17.737-29.883  c-22.381-17.818-35.453-36.035-27.075-59.144c7.602-20.965,28.332-32.048,55.636-27.808l8.206-22.632l23.348,8.465l-7.601,20.964  c8.521,3.529,15.221,7.27,20.601,11.018c6.573,4.581,8.185,13.629,3.666,20.247c-4.671,6.841-14.088,8.466-20.76,3.555  c-5.001-3.681-11.445-7.507-19.853-10.556c-15.485-5.614-22.905-0.757-25.324,5.913c-2.85,7.862,3.674,15.887,21.16,30.853  c24.721,20.285,31.405,37.534,23.632,58.975c-7.689,21.203-29.262,33.867-58.386,28.698l-8.811,24.301L1322.198,625.397z"/>
<path xmlns="http://www.w3.org/2000/svg" fill="#F7A491" d="M1362.44,705.549c0,0,15.901-6.815,20.16-8.235c4.26-1.42,17.891-3.976,17.891-3.976  s21.155-21.723,26.551-22.291c5.395-0.568-12.353,23.711-12.353,23.711l-7.384,7.1c0,0,11.927-10.224,14.198-11.643  c2.272-1.42,20.162-27.261,24.706-25.557c4.544,1.703-7.668,19.877-13.631,29.533c-5.963,9.654-33.225,15.617-33.225,15.617  L1362.44,705.549z"/>
<path xmlns="http://www.w3.org/2000/svg" fill="#ffbf66" d="M1552.489,775.703c-0.032,4.259-96.601,5.433-116.617,91.066l-12.874-4.23  c28.682-87.05,124.298-83.544,128.979-86.747c0.062-0.047,0.091-0.096,0.086-0.089H1552.489z"/>
<path xmlns="http://www.w3.org/2000/svg" fill="#ffbf66" d="M1958.843,1326.599l3.318-11.419c17.558-3.317,32.673-15.27,37.651-32.397  c1.594-5.481,2.692-10.115,3.505-16.318l-23.523-6.837l4.183-14.388l21.239,6.173c0.85-7.183,2.067-16.487,4.656-25.394  c7.834-26.949,31.442-39.156,56.792-31.788c7.233,2.103,12.815,4.827,16.964,7.622c3.765,2.538,4.75,7.657,2.273,11.462  c-2.491,3.824-7.564,4.917-11.452,2.526c-3.23-1.986-7.339-3.896-12.498-5.396c-17.813-5.178-28.705,5.031-33.418,21.245  c-2.854,9.82-3.608,17.526-4.363,25.233l32.887,9.559l-4.184,14.387l-31.058-9.027c-1.838,8.877-3.903,17.688-8.348,25.313  c-5.367,9.09-13.237,15.718-22.928,20.084l-0.134,0.457l60.022,17.445c4.437,1.29,6.988,5.934,5.699,10.37l-0.177,0.603  c-1.289,4.438-5.932,6.989-10.369,5.699L1958.843,1326.599z"/>
</svg>